<svg width="61" height="36" viewBox="0 0 61 36" fill="none" xmlns="http://www.w3.org/2000/svg">
<path fill-rule="evenodd" clip-rule="evenodd" d="M9.00379 1.18293C8.91622 1.28606 8.84887 2.18613 8.82698 3.54393L8.79169 5.73833L5.06798 5.77183C2.49876 5.79487 1.2889 5.85015 1.16592 5.94988C0.878489 6.18308 1.01383 6.84064 1.38703 7.02423C1.79216 7.22368 14.8248 7.25919 15.3543 7.06238C15.7651 6.90964 15.8861 6.63047 15.7301 6.1958L15.6109 5.86425L12.9096 5.80129L10.2082 5.73833V4.03841V2.3385L25.2429 2.30651L40.2776 2.27453V14.867V27.4595H32.6473H25.0172L24.7124 26.8979C24.2983 26.1348 23.0486 24.9965 22.2207 24.6284C21.2098 24.1792 19.9735 24.0035 18.9957 24.1704C17.2885 24.4617 15.6094 25.6125 14.8956 26.9808L14.6458 27.4595H12.3925H10.1392L10.1737 24.4689L10.2082 21.4783L12.5811 21.4439C14.065 21.4224 15.0177 21.3577 15.1244 21.271C15.3709 21.0711 15.3338 20.4814 15.0594 20.2386C14.8481 20.0515 14.2653 20.0305 9.36101 20.0321C6.35652 20.0333 3.83443 20.0757 3.75652 20.1266C3.44565 20.3295 3.33053 20.7292 3.49163 21.0455L3.64796 21.3524L6.25209 21.3865L8.85608 21.4205V24.43V27.4395L8.43756 27.526C7.31565 27.7581 6.59322 28.6807 6.69804 29.7476C6.76655 30.4444 7.05797 30.9071 7.6958 31.3315C8.1093 31.6068 8.21374 31.6149 11.3544 31.6149H14.587L14.9088 32.2094C15.3826 33.0852 16.4364 34.0507 17.4447 34.5327C18.2831 34.9335 18.3857 34.9517 19.8021 34.9517C21.1977 34.9517 21.3326 34.9287 22.1433 34.5532C23.1933 34.0668 24.0394 33.3245 24.6547 32.3497L25.1185 31.6149H34.4887H43.8588L44.2408 32.2759C44.7605 33.1748 45.775 34.0692 46.8142 34.5448C47.5203 34.8679 47.8821 34.9495 48.7977 34.9923C51.0941 35.0997 52.9987 34.0819 53.9987 32.213L54.3187 31.6149H56.3896C58.7564 31.6149 59.1489 31.509 59.6773 30.7283C59.9053 30.3913 59.9964 30.0818 59.9999 29.6316C60.0083 28.5869 59.4438 27.851 58.4293 27.5839L57.9421 27.4556L57.8828 22.8929C57.821 18.1361 57.7762 17.7017 57.1709 15.998C55.9798 12.6453 52.9812 9.71324 49.5524 8.54849C48.059 8.04115 47.1952 7.92418 44.4307 7.85429L41.6942 7.78516V4.55179C41.6942 2.2049 41.6518 1.27712 41.5396 1.16744C41.3011 0.934239 9.20198 0.949475 9.00379 1.18293ZM17.7481 5.98262C17.6635 6.08222 17.613 6.32172 17.6358 6.51475C17.703 7.08379 18.0908 7.18276 20.2528 7.18276C22.4149 7.18276 22.8026 7.08379 22.8698 6.51475C22.9501 5.83655 22.8205 5.80129 20.2528 5.80129C18.3642 5.80129 17.8717 5.83693 17.7481 5.98262ZM47.2938 9.39316C51.8716 10.1737 55.5088 13.7302 56.3071 18.2065C56.4558 19.0406 56.5035 20.2963 56.5035 23.3836V27.4595H55.4362H54.3689L53.8216 26.6456C53.1819 25.6942 52.4553 25.075 51.4507 24.6253C49.8489 23.9082 48.2041 23.9327 46.6157 24.6973C45.6691 25.153 44.5576 26.1917 44.2101 26.9455L43.973 27.4595H42.8336H41.6942V18.3303V9.20113H43.9309C45.3572 9.20113 46.5756 9.27076 47.2938 9.39316ZM3.85954 10.7374C3.66973 10.923 3.66097 11.2779 3.83829 11.6019C3.96372 11.831 4.13448 11.8454 6.71002 11.8454C8.6682 11.8454 9.4925 11.8024 9.60299 11.6943C9.8022 11.4995 9.8022 10.9321 9.60299 10.7374C9.38419 10.5234 4.07833 10.5234 3.85954 10.7374ZM11.7149 10.7374C11.5157 10.9321 11.5157 11.4995 11.7149 11.6943C11.8312 11.808 13.5334 11.8454 18.5845 11.8454C24.9264 11.8454 25.3114 11.8326 25.5127 11.6151C25.7803 11.326 25.784 11.0389 25.5235 10.7841C25.3447 10.6093 24.538 10.5862 18.5953 10.5862C13.5358 10.5862 11.8312 10.6236 11.7149 10.7374ZM43.6516 11.1151C43.4299 11.3318 43.4299 20.4179 43.6516 20.6346C43.7667 20.7472 45.1433 20.7858 49.051 20.7858C53.6474 20.7858 54.3209 20.7613 54.4983 20.5879C54.7842 20.3083 54.7606 19.0408 54.4472 17.8421C53.5844 14.5439 50.8653 11.939 47.4675 11.1557C46.4622 10.924 43.8753 10.8964 43.6516 11.1151ZM47.1672 12.4963C49.2979 12.9279 51.4902 14.6332 52.4873 16.6347C52.9598 17.583 53.43 19.1815 53.2769 19.3192C53.2454 19.3475 51.3509 19.3959 49.0666 19.4267L44.9136 19.4827V15.8549V12.2271L45.7184 12.2965C46.1612 12.3346 46.813 12.4247 47.1672 12.4963ZM1.28697 15.4413C0.971594 15.6573 0.899093 16.2288 1.15523 16.4793C1.26263 16.5843 1.94347 16.6304 3.38886 16.6304C5.29012 16.6304 5.48754 16.6092 5.69641 16.3836C6.00187 16.0536 5.86498 15.5278 5.43152 15.3668C5.25188 15.2999 4.31013 15.2453 3.3389 15.2453C1.94914 15.2453 1.5122 15.2871 1.28697 15.4413ZM7.99817 15.3711C7.61055 15.5238 7.50199 15.9461 7.75375 16.3218L7.96057 16.6304H15.2721C20.7872 16.6304 22.6217 16.5933 22.7382 16.4793C22.9944 16.2288 22.9219 15.6573 22.6065 15.4413C22.3556 15.2695 21.4542 15.2463 15.2984 15.2532C11.4364 15.2576 8.15129 15.3106 7.99817 15.3711ZM17.3841 20.2263C17.0501 20.4548 17.0097 20.9335 17.3001 21.2175C17.4747 21.3883 18.0121 21.4154 21.2187 21.4154C25.2487 21.4154 25.3395 21.4001 25.3395 20.7209C25.3395 20.0752 25.0713 20.0302 21.2187 20.0302C18.2154 20.0302 17.6263 20.0603 17.3841 20.2263ZM21.5269 25.8037C22.3431 26.1567 23.2152 26.9923 23.6306 27.8194C23.9379 28.4314 23.9865 28.6783 23.9812 29.6001C23.9759 30.5098 23.9228 30.7689 23.6273 31.3269C22.9298 32.6435 21.9629 33.3601 20.5397 33.6148C19.1048 33.8717 17.7637 33.4092 16.7267 32.2997C15.9724 31.4927 15.6652 30.7016 15.6652 29.566C15.6652 27.6984 16.7908 26.2249 18.6799 25.6194C19.3908 25.3915 20.7825 25.4817 21.5269 25.8037ZM50.8494 25.85C51.6871 26.2299 52.4165 26.922 52.8778 27.7743C53.1769 28.3272 53.2185 28.5495 53.2187 29.6001C53.2189 30.61 53.1724 30.8818 52.9204 31.344C52.109 32.8325 50.7382 33.6575 49.0762 33.6575C48.2632 33.6575 47.9955 33.598 47.2958 33.2611C46.2946 32.7791 45.5397 31.9803 45.1628 31.0038C44.7875 30.0314 44.8583 28.6755 45.3317 27.7693C45.6615 27.1378 46.5282 26.2498 47.1164 25.9407C48.2184 25.3614 49.6933 25.3257 50.8494 25.85ZM18.8126 27.5712C17.4098 28.2124 17.1214 29.9808 18.2335 31.1225C19.3336 32.252 21.14 31.9925 21.8661 30.6006C22.8571 28.7012 20.8017 26.6622 18.8126 27.5712ZM48.2618 27.4747C47.8505 27.6347 47.2605 28.1808 47.0269 28.618C46.7962 29.0499 46.7932 29.9902 47.0209 30.523C47.379 31.361 48.5513 31.9833 49.4584 31.817C50.0443 31.7094 50.6939 31.2739 51.0596 30.7432C51.4766 30.1383 51.4646 29.1169 51.0323 28.3956C50.5088 27.5221 49.2317 27.0976 48.2618 27.4747ZM20.446 28.9705C20.9777 29.4905 20.578 30.4816 19.8364 30.4816C19.4713 30.4816 18.9007 29.958 18.9007 29.6228C18.9007 28.881 19.9161 28.4524 20.446 28.9705ZM49.8417 29.1148C50.3239 29.7491 49.6644 30.6319 48.8565 30.4336C48.4753 30.34 48.1058 29.7031 48.2307 29.3549C48.4884 28.6371 49.3778 28.5046 49.8417 29.1148ZM14.2647 29.6001V30.3557L11.5282 30.3538C9.58895 30.3525 8.69794 30.3058 8.46975 30.1935C8.06707 29.9953 7.97293 29.4246 8.28689 29.0854C8.49358 28.862 8.71765 28.8446 11.3872 28.8446H14.2647V29.6001ZM43.497 29.6001V30.3557H34.4827H25.4683V29.6001V28.8446H34.4827H43.497V29.6001ZM58.3331 29.002C58.7164 29.2965 58.7361 29.6951 58.3847 30.0387C58.0715 30.345 58.0037 30.3557 56.3805 30.3557H54.7006V29.6001V28.8446H56.4145C57.5905 28.8446 58.1927 28.894 58.3331 29.002Z" fill="#0655A0" stroke="#0655A0" stroke-width="0.4"/>
</svg>
