<svg width="50" height="50" viewBox="0 0 50 50" fill="none" xmlns="http://www.w3.org/2000/svg">
<path fill-rule="evenodd" clip-rule="evenodd" d="M16.0682 0.141891C15.3908 0.324389 15.6842 0.118069 7.21822 6.36521L0.0542844 11.6516L0.0271422 13.8935L0 16.1352H0.809121H1.61824V24.0115V31.8876L1.31635 32.4857C0.883383 33.3438 0.570693 34.2157 0.302197 35.3137C-0.000504494 36.5513 -0.0337008 39.1614 0.238125 40.3444C0.807708 42.8225 1.86454 44.7635 3.57682 46.4765C5.3336 48.2339 7.47259 49.371 9.94253 49.8604C10.9861 50.0673 13.4629 50.0394 14.5335 49.8088C16.9006 49.2989 18.9258 48.1939 20.6447 46.4743C22.4088 44.7096 23.5513 42.5591 24.0267 40.1084C24.179 39.3235 24.2135 37.1216 24.0888 36.1465L24.0081 35.5156H25.0271H26.0461L25.9655 36.1465C25.8408 37.1216 25.8753 39.3235 26.0276 40.1084C26.7576 43.8716 29.1685 47.0632 32.5791 48.7813C33.4348 49.2124 34.757 49.6592 35.773 49.8604C36.8167 50.0673 39.2935 50.0394 40.364 49.8088C44.0149 49.0224 47.1046 46.6345 48.7813 43.3035C49.6312 41.6153 50 39.9916 50 37.9382C50 36.3484 49.8818 35.5607 49.4374 34.1879C48.8424 32.3498 47.8674 30.784 46.4283 29.3556C44.7119 27.6518 42.8204 26.6269 40.3477 26.0606C39.4211 25.8483 36.669 25.82 35.773 26.0134C34.7283 26.2389 33.7814 26.5405 33.0235 26.889L32.292 27.2255V25.0179V22.8104L33.0235 23.1468C34.6036 23.8736 35.9581 24.1507 37.9424 24.1537C39.6357 24.1562 40.6069 24.0042 41.928 23.5301C44.8881 22.4677 47.3666 20.2736 48.7813 17.463C49.6312 15.7748 50 14.1511 50 12.0977C50 10.5079 49.8818 9.72024 49.4374 8.34736C48.8424 6.50925 47.8674 4.94348 46.4283 3.51509C44.6691 1.76883 42.5806 0.664555 40.1118 0.175403C39.1911 -0.00709584 36.6937 -0.00709584 35.773 0.175403C32.1153 0.900148 29.2711 2.99545 27.1951 6.49452C27.1065 6.64381 26.5742 6.28426 23.2095 3.80206C18.3567 0.222037 18.5013 0.319948 17.7999 0.137248C17.0929 -0.046967 16.7664 -0.0460585 16.0682 0.141891ZM39.4192 1.70918C40.9571 1.92317 42.7519 2.64347 44.0469 3.56626C44.7319 4.05441 46.1166 5.46009 46.5844 6.14224C48.4073 8.80028 48.918 12.3903 47.8985 15.3782C47.3628 16.9485 46.6487 18.1127 45.4634 19.349C42.2203 22.731 37.3816 23.5409 33.1496 21.4098C32.1031 20.8828 31.2982 20.271 30.363 19.2918C29.4679 18.3546 29.1166 17.8615 28.5773 16.7853C27.0784 13.7944 27.0792 10.405 28.5793 7.40398C29.1445 6.27336 29.7106 5.5146 30.6904 4.57455C31.6786 3.62632 32.1638 3.27717 33.2566 2.72826C35.1751 1.76459 37.2962 1.41383 39.4192 1.70918ZM16.1479 6.59647V11.2901H9.72055C6.1855 11.2901 3.33637 11.2516 3.38904 11.2046C3.44181 11.1574 4.62003 10.2864 6.00741 9.26894C7.39479 8.25147 8.67108 7.31293 8.84352 7.18333L9.15722 6.94763L9.5365 7.85245L9.91579 8.75728L10.4337 8.86316C13.2566 9.44013 14.343 9.63767 14.3784 9.58024C14.464 9.44175 14.6671 8.16002 14.6122 8.10511C14.5808 8.07382 13.7687 7.8897 12.8074 7.696C11.846 7.50219 11.0548 7.33453 11.049 7.32333C10.8112 6.86123 10.5104 5.98851 10.569 5.93097C10.7642 5.73989 16.0045 1.9053 16.0722 1.90409C16.1138 1.90339 16.1479 4.01494 16.1479 6.59647ZM19.6115 3.15695C20.5453 3.84506 21.3341 4.43293 21.3644 4.46321C21.3946 4.49349 20.9597 5.06955 20.398 5.74343L19.3767 6.96863V8.32182V9.67512H20.1839H20.9911V9.11904V8.56297L21.9983 9.06857C22.5523 9.34666 23.0202 9.57418 23.0383 9.57418C23.1007 9.57418 23.7525 8.16446 23.7089 8.12398C23.6848 8.10157 23.1882 7.84569 22.6055 7.55539C22.0228 7.26509 21.5305 7.01334 21.5115 6.99608C21.4925 6.97882 21.7603 6.62493 22.1067 6.20977L22.7364 5.45484L23.8566 6.28386C24.4726 6.7398 25.3058 7.3524 25.7082 7.64502C26.1106 7.93775 26.4397 8.21846 26.4397 8.26893C26.4397 8.3194 26.3496 8.69045 26.2396 9.09361C26.1294 9.49666 26.0046 10.1445 25.9621 10.5331L25.8848 11.2397L21.8236 11.266L17.7623 11.2925V6.59758C17.7623 4.01544 17.7964 1.90339 17.838 1.90419C17.8796 1.905 18.6777 2.46875 19.6115 3.15695ZM33.553 5.63774L32.7503 6.44556L33.7304 7.42972L34.7105 8.41388L34.5537 8.71619C34.3298 9.14811 34.1018 9.38078 33.755 9.53138C33.4535 9.6624 33.4483 9.65897 32.4688 8.68702L31.4853 7.71104L30.6778 8.51411C29.9038 9.28398 29.8704 9.33616 29.8704 9.77767C29.8704 10.9299 30.476 12.283 31.376 13.1418C32.4404 14.1574 33.6575 14.5882 35.1628 14.4823L36.066 14.4186L38.4421 16.7727C40.945 19.2527 41.0996 19.3653 41.9974 19.3653C43.2451 19.3653 44.4 18.2009 44.4 16.9428C44.4 16.0659 44.2783 15.8998 41.8084 13.405L39.4552 11.028L39.5189 10.1245C39.6248 8.61859 39.1942 7.40105 38.1789 6.33624C37.3204 5.43586 35.9679 4.83002 34.8161 4.83002C34.3748 4.83002 34.3226 4.86343 33.553 5.63774ZM36.1262 6.78522C37.5477 7.44325 38.2469 9.12056 37.7518 10.6845L37.544 11.3406L40.1648 13.9694C42.516 16.3277 42.7856 16.632 42.7856 16.9265C42.7856 17.3665 42.402 17.7503 41.9622 17.7503C41.6677 17.7503 41.3636 17.4806 39.0062 15.1285L36.3784 12.5067L35.7226 12.7145C33.8881 13.2958 31.9919 12.2341 31.5769 10.3933C31.4993 10.0491 31.5002 10.0495 32.1406 10.6845L32.7819 11.3204L33.4048 11.2553C34.1282 11.1796 35.0912 10.7132 35.4811 10.2496C35.9078 9.74224 36.227 8.99893 36.2942 8.35604L36.3583 7.74273L35.7125 7.08754C35.116 6.4822 35.0898 6.43769 35.3694 6.5036C35.5359 6.54287 35.8765 6.66965 36.1262 6.78522ZM16.1479 13.7127V14.5202H8.88307H1.61824V13.7127V12.9052H8.88307H16.1479V13.7127ZM25.8798 13.0314C25.9011 13.1008 25.9464 13.4641 25.9802 13.8389L26.0418 14.5202H21.9021H17.7623V13.7127V12.9052H21.8015C24.9448 12.9052 25.8494 12.9331 25.8798 13.0314ZM16.1479 21.3336C16.1479 24.1927 16.1323 26.532 16.1133 26.532C16.0942 26.532 15.8146 26.4412 15.4921 26.3301C15.1695 26.2191 14.8218 26.1283 14.7195 26.1283C14.5418 26.1283 14.5335 25.9424 14.5335 21.9393V17.7503H9.69028H4.84706V23.0057V28.261L4.51913 28.532C4.33872 28.681 3.97558 29.0022 3.71193 29.2459L3.23265 29.6888V22.912V16.1352H9.69028H16.1479V21.3336ZM26.8931 16.9843C27.084 17.4236 27.4666 18.139 27.7435 18.5741L28.2469 19.3653H23.8118H19.3767V23.4029V27.4405H24.2199H29.0632V23.8938V20.347L29.5424 20.79C29.8061 21.0336 30.1692 21.3548 30.3496 21.5038L30.6776 21.7748L30.6751 25.0366L30.6728 28.2985L30.2603 28.6013C28.933 29.5757 27.2225 31.9754 26.609 33.7239C26.5537 33.8816 26.3837 33.9006 25.0271 33.9006C23.6705 33.9006 23.5006 33.8816 23.4453 33.7239C22.6794 31.5413 20.7477 29.1318 18.6918 27.7949L17.7623 27.1904V21.6618V16.1331L22.1542 16.1594L26.5461 16.1857L26.8931 16.9843ZM12.9191 22.58V25.7948L11.6831 25.8549C9.90711 25.9412 8.23529 26.3427 6.96021 26.9892L6.46146 27.242V23.3037V19.3653H9.69028H12.9191V22.58ZM27.4488 23.4029V25.8254H24.2199H20.9911V23.4029V20.9803H24.2199H27.4488V23.4029ZM13.5887 27.5497C15.0363 27.7512 16.8505 28.4562 18.0558 29.2857C18.7154 29.7398 20.0191 31.0121 20.5539 31.7236C21.4756 32.95 22.1968 34.6741 22.4569 36.2727C23.0116 39.6818 21.8889 43.0124 19.3577 45.467C18.159 46.6297 16.9675 47.3599 15.3911 47.8982C12.2858 48.9585 8.52568 48.3585 5.89975 46.3835C5.1885 45.8485 3.91665 44.5443 3.4628 43.8844C1.67838 41.2897 1.15531 37.8505 2.09086 34.8637C2.63855 33.1153 3.50649 31.7206 4.86169 30.411C5.83305 29.4723 6.31112 29.1289 7.42607 28.5688C9.34459 27.6051 11.4657 27.2543 13.5887 27.5497ZM39.4192 27.5497C40.8668 27.7512 42.681 28.4562 43.8863 29.2857C44.5459 29.7398 45.8497 31.0121 46.3844 31.7236C47.3062 32.95 48.0273 34.6741 48.2874 36.2727C48.8421 39.6818 47.7194 43.0124 45.1883 45.467C43.9895 46.6297 42.798 47.3599 41.2217 47.8982C38.1163 48.9585 34.3562 48.3585 31.7303 46.3835C31.019 45.8485 29.7472 44.5443 29.2933 43.8844C27.5089 41.2897 26.9858 37.8505 27.9214 34.8637C28.4691 33.1153 29.337 31.7206 30.6922 30.411C31.6636 29.4723 32.1416 29.1289 33.2566 28.5688C35.1751 27.6051 37.2962 27.2543 39.4192 27.5497ZM9.71197 30.7974C9.2788 30.9363 8.54072 31.5911 8.37998 31.9793L8.25315 32.2856H6.54824H4.84332L4.87046 34.6264L4.89751 36.9674L8.10109 37.7679L11.3047 38.5683V39.5532V40.5381L10.9986 40.665C10.5828 40.8373 9.95383 41.5734 9.80894 42.0572C9.65365 42.5758 9.65627 44.613 9.81297 45.1436C10.0692 46.0111 11.1791 46.8208 12.1119 46.8208C13.0447 46.8208 14.1546 46.0111 14.4108 45.1436C14.5675 44.613 14.5701 42.5758 14.4148 42.0572C14.2702 41.5745 13.6412 40.8374 13.2277 40.666L12.9239 40.5401L12.8963 38.917L12.8686 37.2938L9.66505 36.4934L6.46146 35.693V34.7967V33.9006H7.35736H8.25315L8.37998 34.2068C8.55222 34.6227 9.28809 35.252 9.7717 35.3969C10.3338 35.5654 17.1282 35.562 17.7002 35.3929C18.2544 35.2291 19.0903 34.3929 19.254 33.8384C19.5182 32.9441 19.3414 32.1899 18.7006 31.4768C17.9855 30.6811 17.9082 30.6689 13.6831 30.6808C11.4422 30.6872 9.91609 30.732 9.71197 30.7974ZM41.373 31.5908C39.2769 31.8007 36.8504 32.4542 34.4668 33.4506L34.076 33.6139L35.8318 35.3725L37.5875 37.1311L36.6748 38.0442L35.762 38.9573L35.2667 38.8462C34.6997 38.719 34.1134 38.7911 33.6037 39.0505C33.4094 39.1494 32.7264 39.7685 32.0859 40.4263C31.2048 41.3313 30.8917 41.7236 30.7995 42.0379C30.5213 42.9862 30.7182 43.7393 31.4309 44.4522C32.1675 45.1891 32.96 45.3785 33.9271 45.049C34.5707 44.8295 36.833 42.5316 37.0137 41.9136C37.1661 41.3926 37.1685 40.89 37.0207 40.4658C36.9067 40.1389 36.9111 40.132 37.8277 39.2152L38.7492 38.2932L40.5071 40.0496L42.265 41.8061L42.4282 41.4151C43.7428 38.2677 44.4 35.2525 44.4 32.3689V31.478L43.3153 31.4915C42.7187 31.4988 41.8447 31.5436 41.373 31.5908ZM17.5146 32.5334C17.6708 32.6895 17.7623 32.8964 17.7623 33.0931C17.7623 33.2897 17.6708 33.4966 17.5146 33.6528L17.267 33.9006H13.7263H10.1856L9.93799 33.6528C9.78179 33.4966 9.69028 33.2897 9.69028 33.0931C9.69028 32.8964 9.78179 32.6895 9.93799 32.5334L10.1856 32.2856H13.7263H17.267L17.5146 32.5334ZM42.7353 33.7744C42.6219 34.9371 42.3856 36.3228 42.1259 37.3476C41.6729 39.1355 42.0101 39.2298 39.3522 36.5727C38.0797 35.3005 37.0716 34.228 37.1121 34.1892C37.4187 33.8951 40.8562 33.2087 42.5162 33.11L42.8017 33.0931L42.7353 33.7744ZM35.2731 40.6085C35.4342 40.7696 35.5208 40.9706 35.5208 41.1836C35.5208 41.4643 35.3727 41.6591 34.4813 42.5509C33.5899 43.4426 33.3951 43.5908 33.1145 43.5908C32.6761 43.5908 32.292 43.2065 32.292 42.7679C32.292 42.4872 32.4401 42.2924 33.3314 41.4006C34.2229 40.5089 34.4176 40.3607 34.6982 40.3607C34.9111 40.3607 35.112 40.4473 35.2731 40.6085ZM12.6714 42.2236C12.9046 42.4568 12.9191 42.5368 12.9191 43.5908C12.9191 44.6448 12.9046 44.7247 12.6714 44.958C12.5153 45.1143 12.3084 45.2058 12.1119 45.2058C11.9153 45.2058 11.7085 45.1143 11.5524 44.958C11.3192 44.7247 11.3047 44.6448 11.3047 43.5908C11.3047 42.5368 11.3192 42.4568 11.5524 42.2236C11.7085 42.0673 11.9153 41.9757 12.1119 41.9757C12.3084 41.9757 12.5153 42.0673 12.6714 42.2236Z" fill="#0655A0"/>
</svg>
