<svg width="52" height="52" viewBox="0 0 52 52" fill="none" xmlns="http://www.w3.org/2000/svg">
<path fill-rule="evenodd" clip-rule="evenodd" d="M24.68 0.187483C24.3171 0.28385 23.4172 0.686582 22.6802 1.08261L21.3405 1.80257L19.6617 1.68112C17.8032 1.54668 16.9755 1.60507 16.1548 1.92859C15.1964 2.30644 14.4859 2.89958 13.3971 4.23034L12.3716 5.48413L10.8855 5.95185C9.06943 6.52325 8.3519 6.88983 7.62391 7.61791C6.8876 8.35433 6.51112 9.09236 5.99279 10.8153L5.56514 12.2369L4.95635 12.7447C1.81697 15.3626 1.40434 16.2764 1.7464 19.8529L1.86296 21.0715L1.08594 22.6221C-0.356331 25.5004 -0.360088 26.6075 1.0635 29.2685L1.80895 30.6618L1.68772 32.3382C1.55349 34.1942 1.61198 35.0224 1.93536 35.843C2.31316 36.8014 2.90621 37.5121 4.23679 38.6009L5.49041 39.6267L5.95807 41.1129C6.52695 42.9214 6.88211 43.6164 7.61883 44.3629C8.35078 45.1046 9.07745 45.477 10.8209 46.0043L12.2423 46.4342L12.75 47.043C15.3683 50.183 16.2812 50.5954 19.8572 50.2533L21.0756 50.1367L22.626 50.9138C25.5055 52.3571 26.6105 52.3603 29.2764 50.9337L30.6744 50.1855L31.7639 50.2766C33.7268 50.4407 34.8153 50.4094 35.5468 50.1679C36.6518 49.803 37.4373 49.1871 38.5809 47.7891L39.5993 46.5443L41.0998 46.0591C42.9459 45.4622 43.628 45.1094 44.3692 44.3682C45.1232 43.6141 45.4879 42.9038 46.0071 41.1776L46.4348 39.7559L47.0436 39.2482C50.1829 36.6302 50.5956 35.7164 50.2535 32.14L50.1369 30.9214L50.914 29.3708C52.357 26.491 52.3603 25.3858 50.9339 22.7195L50.1858 21.3214L50.2769 20.2317C50.4409 18.2686 50.4097 17.1799 50.1681 16.4483C49.8018 15.3388 49.1885 14.5584 47.7719 13.3992L46.5095 12.3662L46.0418 10.88C45.4705 9.06363 45.104 8.346 44.376 7.61791C43.6397 6.8815 42.9017 6.50497 41.179 5.98658L39.7576 5.55887L39.2499 4.94999C36.6323 1.81019 35.7186 1.39751 32.1427 1.73961L30.9243 1.85619L29.3739 1.07906C27.1998 -0.0106338 26.1664 -0.206922 24.68 0.187483ZM28.6313 2.99726C30.604 3.97505 30.4935 3.952 32.295 3.7617C34.0737 3.57384 34.6163 3.61365 35.3506 3.98632C35.9079 4.26913 36.1827 4.52442 37.2726 5.77191C37.9719 6.5725 38.623 7.27154 38.7192 7.32546C38.8155 7.37928 39.5454 7.61944 40.3412 7.85899C42.0273 8.36651 42.4658 8.57438 42.9701 9.10577C43.4629 9.62518 43.55 9.81659 44.2169 11.8467L44.7892 13.5889L46.0108 14.5798C48.4264 16.5391 48.506 16.7427 48.2317 20.2643L48.1191 21.7106L49.0149 23.4466L49.9108 25.1826V25.9822V26.7817L49.0109 28.5977C48.0117 30.6145 48.0252 30.5489 48.2344 32.3752C48.4235 34.0257 48.3783 34.6167 48.0071 35.3483C47.7243 35.9057 47.4691 36.1806 46.2217 37.2706C45.4213 37.97 44.7223 38.6212 44.6684 38.7174C44.6146 38.8137 44.3745 39.5437 44.135 40.3396C43.6275 42.026 43.4197 42.4645 42.8883 42.9689C42.3692 43.4617 42.1774 43.549 40.152 44.2144L38.4143 44.7854L37.3704 46.0581C35.4143 48.4428 35.2517 48.5055 31.7314 48.2312L30.2852 48.1186L28.5494 49.0145L26.8136 49.9105H26.0142H25.2148L23.399 49.0105C21.3826 48.0111 21.4482 48.0246 19.6221 48.2339C17.9718 48.423 17.3809 48.3778 16.6493 48.0066C16.092 47.7237 15.8172 47.4685 14.7273 46.221C14.028 45.4204 13.374 44.7196 13.2741 44.6638C13.1743 44.6079 12.4444 44.3675 11.6521 44.1297C9.98261 43.6285 9.64298 43.4732 9.11156 42.9689C8.58918 42.4729 8.4517 42.1807 7.7822 40.1434L7.20885 38.3984L5.9533 37.3784C3.56739 35.4403 3.48007 35.2119 3.76974 31.6701L3.88295 30.2865L2.98601 28.5483L2.08908 26.8102V26.0107V25.2112L2.98896 23.3951C3.98824 21.3784 3.97474 21.444 3.76548 19.6177C3.55419 17.7732 3.66709 16.9504 4.2373 16.1776C4.36888 15.9993 5.11017 15.3029 5.88456 14.6302C6.65895 13.9573 7.34206 13.2807 7.40277 13.1265C7.46339 12.9723 7.68128 12.275 7.88698 11.5769C8.33159 10.0676 8.53638 9.62477 9.02942 9.10577C9.52582 8.58331 9.81823 8.44572 11.8521 7.77714L13.5941 7.20462L14.5849 5.98292C16.5449 3.56572 16.7462 3.48722 20.2777 3.76241L21.733 3.87574L23.2279 3.08896C25.0584 2.12549 25.3613 2.02181 26.1945 2.07269C26.7699 2.10782 27.0547 2.21587 28.6313 2.99726ZM25.5035 5.82898C24.6233 6.31691 24.9915 7.71814 26 7.71814C26.5144 7.71814 27.0153 7.22209 27.0153 6.71253C27.0153 5.95012 26.1729 5.45783 25.5035 5.82898ZM20.6221 6.41084C17.4432 7.26413 14.4188 9.0025 11.9047 11.4211C10.102 13.1554 8.87296 14.8427 7.75976 17.1112C2.79737 27.2242 7.10386 39.4682 17.3384 44.3443C22.8698 46.9796 29.3821 46.9383 34.884 44.2329C44.9589 39.2789 49.1316 27.254 44.2727 17.1768C42.0151 12.4944 37.9593 8.78945 33.1072 6.97726C31.5648 6.40129 30.5861 6.17352 30.2001 6.30096C29.7978 6.43368 29.5536 6.78991 29.5536 7.24392C29.5536 7.79359 29.8661 8.08899 30.701 8.32864C35.5053 9.70733 39.1947 12.4863 41.6867 16.6034C45.504 22.9099 45.0356 31.1509 40.5244 37.055C37.8888 40.5043 34.0476 42.9517 29.8582 43.851C23.3905 45.2393 16.6085 42.9987 12.2813 38.0439C5.9866 30.8362 6.25241 20.1257 12.8963 13.2658C15.0869 11.0039 17.871 9.33354 20.9408 8.43912C22.1311 8.09234 22.4463 7.84375 22.4463 7.25194C22.4463 6.79681 22.2098 6.44171 21.8153 6.30411C21.4383 6.17261 21.5446 6.16317 20.6221 6.41084ZM25.4554 10.304C24.9703 10.4769 24.4984 10.9098 24.3071 11.3573C24.2274 11.5437 24.1162 12.2291 24.06 12.8805C23.9563 14.0812 23.7443 14.8523 23.108 16.3431C22.9547 16.7024 22.7 17.6317 22.5423 18.4079C22.1549 20.3139 21.9125 20.6637 21.3232 20.1678L21.0093 19.9037H17.9633H14.9173L14.6205 20.2005L14.3237 20.4973V28.5859V36.6744L14.6205 36.9712L14.9173 37.2681H17.9675H21.0178L21.3545 36.9724C21.7591 36.617 21.7294 36.6135 24.4262 37.3366L26.2538 37.8266H30.6197H34.9856L35.5697 37.5528C37.0871 36.8416 38.1257 35.1046 37.945 33.5798C37.8902 33.1168 37.912 33.0433 38.2019 32.7131C38.3761 32.5147 38.6375 32.099 38.7828 31.7892C39.0088 31.3072 39.0484 31.079 39.0575 30.2058C39.0679 29.2117 39.0775 29.1715 39.4346 28.6319C39.8957 27.9354 40.1565 26.9556 40.0795 26.2097C40.0226 25.6583 40.0237 25.6559 40.4681 25.2646C42.1192 23.8111 41.6918 21.1059 39.6661 20.1888C39.1561 19.958 39.0802 19.9537 34.5927 19.9037L30.0371 19.8529L29.7888 19.3788C29.3911 18.619 29.3813 17.9865 29.7502 16.8814C29.9228 16.364 30.091 15.61 30.1239 15.2058C30.3018 13.0213 28.9111 10.8987 26.9206 10.3165C26.2567 10.1223 25.9718 10.1199 25.4554 10.304ZM27.1927 12.7463C28.0916 13.5158 28.3218 14.8916 27.7949 16.3455C27.4302 17.352 27.356 18.2399 27.563 19.1212L27.7252 19.8111L27.3195 20.197C26.8862 20.6093 26.8165 20.8991 27.0351 21.3789C27.2898 21.938 27.2512 21.9346 33.1886 21.9346H38.6614L39.0032 22.1649C39.4605 22.4731 39.5954 22.9383 39.3667 23.418C39.1086 23.9593 38.7354 24.0671 37.1177 24.0671C35.2108 24.0671 34.8333 24.2476 34.8333 25.1597C34.8333 25.4529 34.9008 25.6184 35.0948 25.8011C35.3374 26.0292 35.4538 26.0509 36.694 26.098L38.0315 26.1488L38.0152 26.6299C37.986 27.4918 37.3681 28.1289 36.5616 28.1289C36.086 28.1289 35.6448 28.6031 35.6478 29.1112C35.6513 29.7217 36.1143 30.1598 36.7557 30.1598C37.0114 30.1598 37.0666 30.2005 37.0647 30.3883C37.0579 31.0886 36.3462 31.8849 35.7264 31.8857C35.3161 31.8863 34.9373 32.0944 34.7749 32.4086C34.4161 33.1025 34.7615 33.7843 35.5238 33.8866C35.9495 33.9437 35.9586 33.9528 35.8969 34.2611C35.7949 34.7714 35.3269 35.3693 34.8319 35.6217C34.3771 35.8536 34.3701 35.8539 30.4166 35.8241L26.4568 35.7942L24.477 35.2707C23.388 34.983 22.3254 34.7183 22.1155 34.6829L21.734 34.6183L21.7602 28.5759L21.7864 22.5334L22.3956 22.2888C23.2245 21.956 23.8783 21.2508 24.1569 20.3891C24.2702 20.0383 24.4591 19.2552 24.5766 18.6487C24.7088 17.9664 24.9574 17.1535 25.2289 16.5162C25.7653 15.2572 25.9873 14.3963 26.0618 13.2868C26.093 12.821 26.1355 12.3846 26.1562 12.3168C26.2133 12.1297 26.7156 12.3378 27.1927 12.7463ZM19.7049 28.5859V35.2371H18.0297H16.3544V28.5859V21.9346H18.0297H19.7049V28.5859Z" fill="#0655A0"/>
</svg>
