<svg width="25" height="16" viewBox="0 0 25 16" fill="none" xmlns="http://www.w3.org/2000/svg">
<path fill-rule="evenodd" clip-rule="evenodd" d="M11.2573 0.0625999C8.82563 0.3788 6.63947 1.1984 4.72768 2.5103C3.05302 3.6596 1.16365 5.7462 0.325341 7.3722L0 8.0033L0.278947 8.5266C0.822027 9.5454 1.66988 10.6627 2.71248 11.7333C3.29308 12.3295 3.75361 12.8316 3.73587 12.8491C3.71823 12.8666 3.00195 13.3186 2.14425 13.8536C0.115887 15.1187 0.0487329 15.1696 0.0487329 15.4413C0.0487329 15.6981 0.325829 16 0.561501 16C0.692398 16 23.926 1.5622 24.732 0.98C24.8906 0.8654 25 0.6935 25 0.5587C25 0.3005 24.7225 0 24.4841 0C24.3964 0 23.4257 0.5631 22.3271 1.2514L20.3295 2.5027L19.8139 2.1648C18.5234 1.319 16.8949 0.6491 15.2728 0.2966C14.3511 0.0964 12.0355 -0.0386001 11.2573 0.0625999ZM14.5711 1.2548C15.0804 1.3394 15.9513 1.5646 16.5064 1.7551C17.5116 2.1001 19.2495 2.9505 19.2495 3.0974C19.2495 3.1398 18.4803 3.6551 17.5402 4.2424L15.8308 5.3103L15.3715 4.8912C14.4252 4.0276 13.0433 3.5849 11.9248 3.787C9.34727 4.2528 7.7537 6.9059 8.59025 9.3386C8.66452 9.5545 8.71384 9.7417 8.6999 9.7544C8.40731 10.0221 4.77105 12.1789 4.6923 12.1314C4.35692 11.9291 3.24795 10.8517 2.70429 10.2C2.01404 9.3725 1.21832 8.1933 1.21832 7.9977C1.21832 7.7374 2.34074 6.1561 3.12758 5.3077C5.1537 3.1233 7.67242 1.75 10.575 1.2471C11.6016 1.0693 13.4773 1.0729 14.5711 1.2548ZM21.5887 4.2C21.3058 4.4902 21.3438 4.6529 21.8168 5.1793C22.7573 6.2258 23.8304 7.7338 23.8304 8.0091C23.8304 8.2585 22.7114 9.8375 21.9491 10.6638C19.8352 12.955 17.1873 14.3519 14.0958 14.8066C13.5936 14.8805 12.7497 14.9059 11.9028 14.8725C10.3752 14.8124 9.06774 14.527 7.81101 13.9794C6.91618 13.5895 6.56062 13.5331 6.35107 13.7481C5.94669 14.163 6.27008 14.5247 7.46998 14.9994C11.783 16.706 16.4059 16.1622 20.3322 13.4863C21.609 12.6162 23.3015 10.8598 24.2015 9.471C24.5861 8.8776 24.9274 8.2832 24.9599 8.1503C25.035 7.8434 24.6261 7.0959 23.6742 5.7993C22.9212 4.7737 22.172 4 21.932 4C21.8504 4 21.6959 4.09 21.5887 4.2ZM13.7556 5.0929C14.3108 5.3389 14.858 5.8507 14.7118 5.9872C14.5488 6.1395 9.77222 9.1 9.68947 9.1C9.57388 9.1 9.40663 8.4175 9.40604 7.9432C9.40302 5.6919 11.7043 4.1839 13.7556 5.0929ZM15.7575 7.875C15.7094 7.9713 15.6411 8.2437 15.6059 8.4805C15.3277 10.3487 13.3619 11.6349 11.6585 11.0633C11.0344 10.8538 10.8376 10.8576 10.6389 11.0829C10.316 11.449 10.5178 11.7823 11.2154 12.0348C13.5402 12.8764 16.1536 11.2882 16.6086 8.7573C16.6974 8.2636 16.6904 8.1257 16.5669 7.9323C16.3847 7.6471 15.8891 7.612 15.7575 7.875Z" fill="black"/>
</svg>
