<svg width="12" height="19" viewBox="0 0 12 19" fill="none" xmlns="http://www.w3.org/2000/svg">
<path fill-rule="evenodd" clip-rule="evenodd" d="M4.89399 0.105571C3.2002 0.450661 1.66278 1.80681 1.15161 3.40681C0.591742 5.15907 1.10173 6.98443 2.51316 8.28056C3.41561 9.10927 4.64748 9.58211 5.91397 9.5859C6.77202 9.5885 7.37128 9.47114 8.08314 9.16104C10.5106 8.10356 11.6214 5.59307 10.7334 3.17105C9.91647 0.942597 7.36353 -0.397581 4.89399 0.105571ZM7.01907 2.68179C8.91434 3.51577 8.93328 6.0634 7.05047 6.90829C6.05993 7.35277 4.8499 7.11946 4.13162 6.34535C3.29267 5.44133 3.33261 4.02227 4.22104 3.16556C4.95757 2.45532 6.06807 2.26331 7.01907 2.68179ZM0.690169 9.68053C0.321124 9.8328 0 10.3351 0 10.7602C0 11.2143 0.223479 11.518 0.920226 12.011C1.88297 12.6921 3.18258 13.166 4.52048 13.3237L4.96923 13.3767L3.01211 15.2757C0.93111 17.2948 0.822738 17.437 0.93432 18.0016C1.00769 18.3726 1.56717 18.9033 1.95822 18.9729C2.53485 19.0754 2.72012 18.9541 4.34508 17.4099C5.18449 16.6123 5.92337 15.9596 5.98695 15.9596C6.05061 15.9596 6.79097 16.6083 7.63211 17.401C8.89022 18.5866 9.22058 18.8589 9.49433 18.9354C10.5856 19.2406 11.5298 17.9675 10.8531 17.1035C10.7283 16.9441 9.8124 16.0455 8.81763 15.1065L7.00905 13.3991L7.77204 13.2721C8.19175 13.2023 8.82867 13.055 9.18738 12.9447C10.2984 12.6033 11.5897 11.7665 11.9166 11.1761C12.1668 10.724 11.8256 9.93567 11.2717 9.68633C10.8116 9.47924 10.4143 9.56251 9.57451 10.0421C9.17509 10.2702 8.51358 10.5638 8.10444 10.6943C7.45099 10.9031 7.22986 10.9362 6.28536 10.9669C4.633 11.0209 3.86547 10.814 1.92909 9.79321C1.46679 9.54951 1.09061 9.51534 0.690169 9.68053Z" fill="white"/>
</svg>
