<svg width="23" height="23" viewBox="0 0 23 23" fill="none" xmlns="http://www.w3.org/2000/svg">
<path fill-rule="evenodd" clip-rule="evenodd" d="M9.31568 0.104102C3.37534 0.967818 -0.822205 6.6108 0.136591 12.4441C0.867968 16.8941 4.01127 20.3048 8.34115 21.3466C9.12596 21.5354 9.32792 21.5554 9.5879 21.4697C9.98877 21.3376 10.1685 21.0726 10.1685 20.6135C10.1685 20.0795 9.91959 19.8885 8.89278 19.6346C7.14989 19.2038 5.80643 18.4673 4.56012 17.2596C1.69614 14.4842 0.994182 10.167 2.83909 6.67377C5.94901 0.785213 13.9589 0.123234 18.056 5.41628C18.8671 6.46404 19.6004 8.16084 19.7594 9.3577C19.8448 10.0004 20.1637 10.3333 20.6939 10.3333C20.9905 10.3333 21.1241 10.2768 21.3423 10.059C21.6034 9.79827 21.6141 9.75938 21.5572 9.27596C21.3399 7.43006 20.41 5.37613 19.0786 3.80121C16.7472 1.04345 12.8931 -0.416049 9.31568 0.104102ZM10.3187 3.42118C10.19 3.52232 10.0431 3.75468 9.99219 3.93765C9.93704 4.13606 9.89944 5.52559 9.89917 7.37895L9.89863 10.4875L8.27934 12.1574C6.71197 13.7737 6.66006 13.8392 6.66006 14.198C6.66006 14.7062 7.03627 15.0938 7.5297 15.0938C7.85761 15.0938 7.9607 15.0062 9.77313 13.1851C11.2882 11.6629 11.6845 11.2151 11.7304 10.9733C11.8271 10.4628 11.7954 4.30151 11.6942 3.93765C11.58 3.52708 11.2281 3.2375 10.8432 3.2375C10.6834 3.2375 10.4474 3.32013 10.3187 3.42118ZM15.746 11.0116C15.4244 11.0804 14.7816 11.324 14.3175 11.553C12.8769 12.264 11.8316 13.4752 11.2689 15.0852C11.0582 15.6881 11.0304 15.9034 11.0304 16.9352C11.0304 17.9669 11.0582 18.1822 11.2689 18.7851C11.8318 20.3957 12.8774 21.6069 14.3175 22.3167C16.1685 23.2289 17.9348 23.2278 19.7904 22.3133C20.983 21.7254 21.8491 20.8604 22.4361 19.6708C23.1394 18.2455 23.1839 17.425 22.5748 17.1106C22.255 16.9455 22.0114 16.9455 21.6916 17.1106C21.4331 17.244 21.3638 17.3755 21.098 18.2367C20.5682 19.9539 18.8649 21.2016 17.0505 21.2016C14.7441 21.2016 12.7795 19.239 12.7795 16.9352C12.7795 14.9595 14.2385 13.1701 16.1778 12.7677C16.7864 12.6413 17.2477 12.6426 17.9545 12.7726C18.6321 12.8973 19.0111 12.7825 19.2137 12.391C19.4226 11.9878 19.3759 11.6941 19.0516 11.3703C18.8185 11.1375 18.6385 11.0571 18.1671 10.9751C17.398 10.8414 16.4771 10.8553 15.746 11.0116ZM21.1886 13.1321C21.0055 13.1801 20.2983 13.8233 18.988 15.1337L17.0573 17.0646L16.3227 16.3487C15.6963 15.7382 15.5431 15.6328 15.2823 15.6328C14.8944 15.6328 14.5921 15.8431 14.4327 16.224C14.2496 16.6617 14.379 16.906 15.2784 17.8207C16.3616 18.9221 16.9055 19.1458 17.6509 18.7966C17.8331 18.7112 18.9523 17.6904 20.1473 16.5197L22.3131 14.3977V13.9945C22.3131 13.3442 21.8207 12.9666 21.1886 13.1321Z" fill="#0655A0"/>
</svg>
