<svg width="17" height="11" viewBox="0 0 17 11" fill="none" xmlns="http://www.w3.org/2000/svg">
<path d="M9.32308 10.4508C9.75375 10.4508 9.93083 10.1461 9.92517 9.76673C9.9025 8.33585 10.4295 7.56515 11.3843 8.56886C12.4383 9.68011 12.6537 10.4508 13.9358 10.4508H16.2038C16.7747 10.4508 17 10.2566 17 9.95194C17 9.3067 15.9927 8.16857 15.1413 7.33513C13.9457 6.16563 13.8918 6.13726 14.9203 4.73027C16.1953 2.98424 17.8656 0.746806 16.3894 0.746806H13.5688C13.0206 0.746806 12.9823 1.07092 12.7882 1.55634C12.0828 3.30835 10.744 5.57864 10.234 5.23213C9.69992 4.86918 9.945 3.43531 9.98608 1.30392C9.99742 0.740831 9.99458 0.353985 9.17717 0.153841C8.73233 0.0448073 8.29742 0 7.89792 0C6.28717 0 5.17508 0.712454 5.8055 0.836424C6.91758 1.05449 6.81275 3.59363 6.55208 4.68994C6.10017 6.59878 4.40158 3.17841 3.69325 1.47569C3.52325 1.06495 3.47367 0.746806 2.86308 0.746806H0.558166C0.20825 0.746806 0 0.866296 0 1.13216C0 1.58174 2.09525 6.1507 4.097 8.42846C6.05058 10.6495 7.9815 10.4508 9.32308 10.4508Z" fill="white"/>
</svg>
