<svg width="27" height="28" viewBox="0 0 27 28" fill="none" xmlns="http://www.w3.org/2000/svg">
<path fill-rule="evenodd" clip-rule="evenodd" d="M1 14V27H2.03659H3.07317V25.922V24.8439H4.65854H6.2439V25.922V27H7.28049H8.31707V22.6561V18.3122H9.87195H11.4268V22.6561V27H12.4634H13.5V25.922V24.8439H16.0909H18.6818L18.6976 21.5939L18.7134 18.3439L21.3201 18.3274L23.9268 18.3109V15.0774V11.8439H24.9634H26V10.7659V9.68781H24.9634H23.9268V6.42195V3.1561H24.9634H26V2.07805V1H13.5H1V14ZM6.21341 6.42195V9.6561H4.65854H3.10366L3.0878 6.48537C3.07909 4.74146 3.08524 3.27849 3.10152 3.23429C3.12457 3.1717 3.47238 3.15768 4.67226 3.17087L6.21341 3.1878V6.42195ZM11.4268 9.6561V16.1561H9.87195H8.31707V9.6561V3.1561H9.87195H11.4268V9.6561ZM16.6098 6.42195V9.68781H15.0549H13.5V6.42195V3.1561H15.0549H16.6098V6.42195ZM21.8387 9.67195L21.8542 16.1561H20.2686H18.6829V9.6984C18.6829 6.14661 18.7017 3.22116 18.7246 3.19732C18.7475 3.17347 19.4541 3.16155 20.2947 3.17087L21.8232 3.1878L21.8387 9.67195ZM6.22902 17.25L6.21341 22.6561H4.65854H3.10366L3.08805 17.25L3.0725 11.8439H4.65854H6.24457L6.22902 17.25ZM16.6098 17.2659V22.6878H15.0549H13.5V17.2659V11.8439H15.0549H16.6098V17.2659Z" fill="#0655A0" stroke="white"/>
</svg>
