<svg width="26" height="19" viewBox="0 0 26 19" fill="none" xmlns="http://www.w3.org/2000/svg">
<path fill-rule="evenodd" clip-rule="evenodd" d="M10.3891 0.0115893C8.94189 0.254043 7.71888 1.17405 7.07752 2.50271C6.75128 3.17855 6.6498 3.60979 6.62585 4.42211C6.59828 5.35765 6.67201 5.70064 7.14289 6.82683C7.69814 8.15489 8.71141 10.5413 8.75238 10.6175C8.77401 10.6578 8.79997 10.4096 8.81494 10.0187C8.86888 8.61129 9.17595 7.37331 9.77454 6.14988C11.0028 3.63942 13.2502 1.84506 15.8923 1.26519C16.203 1.19703 16.3448 1.14848 16.2875 1.12992C16.2383 1.11402 15.1927 0.857944 13.9639 0.560945C11.7892 0.0352578 11.7136 0.0204243 11.1264 0.00498617C10.7946 -0.00370941 10.4629 -0.000733287 10.3891 0.0115893ZM16.4785 1.77326C15.2443 1.98172 14.192 2.40078 13.1819 3.0862C12.3236 3.66866 11.6537 4.31758 11.0586 5.14301C8.83277 8.23078 8.84662 12.4769 11.0927 15.5777C11.4186 16.0276 12.1454 16.7948 12.5765 17.1441L12.8872 17.3957L6.44358 17.4075L0 17.4193V18.2096V19L8.94806 18.9999C14.8589 18.9997 18.0705 18.9831 18.41 18.9507C20.411 18.76 22.2107 17.8843 23.5794 16.4353C24.3217 15.6495 24.7407 15.0363 25.1794 14.0942C25.7965 12.7688 26.048 11.4962 25.9925 9.97891C25.9532 8.90378 25.7998 8.1401 25.4228 7.14239C24.394 4.42044 22.0897 2.43096 19.2789 1.83803C18.6506 1.70546 17.0932 1.66947 16.4785 1.77326ZM19.07 3.41765C21.4431 3.96278 23.326 5.68409 24.1035 8.01901C24.3883 8.87411 24.4578 9.32619 24.4589 10.3277C24.4598 11.0719 24.444 11.2881 24.3591 11.6994C23.8597 14.1181 22.3146 16.0402 20.1756 16.9037C19.3345 17.2432 18.6341 17.3773 17.695 17.3785C14.385 17.383 11.5751 14.9067 11.0162 11.4926C10.9301 10.9664 10.9166 9.85229 10.99 9.33228C11.2039 7.81836 11.8601 6.46571 12.911 5.37281C13.9779 4.26322 15.0893 3.65992 16.6003 3.37018C17.2082 3.2536 18.4607 3.27764 19.07 3.41765ZM16.9131 4.8382C14.7686 5.18704 13.076 6.7888 12.5283 8.98785C12.3859 9.55976 12.3392 10.4767 12.4204 11.1066C12.6464 12.8591 13.7161 14.4365 15.2302 15.2503C16.007 15.6679 16.6099 15.833 17.4983 15.8717C18.9803 15.9361 20.2957 15.4215 21.3729 14.3556C22.7016 13.0408 23.2995 11.0963 22.9402 9.25816C22.487 6.93974 20.7198 5.18825 18.4854 4.84299C17.9391 4.75859 17.4124 4.75696 16.9131 4.8382ZM18.7173 6.52105C19.2395 6.6785 19.5954 6.86269 20.0182 7.19414C21.2276 8.14256 21.7698 9.8037 21.3822 11.3739C21.2037 12.0972 20.6811 12.9289 20.0965 13.42C19.7628 13.7003 19.0362 14.0801 18.6334 14.1847C17.636 14.4437 16.4943 14.243 15.6384 13.6579C13.6373 12.2901 13.3073 9.43723 14.9401 7.62078C15.9064 6.54588 17.3784 6.11728 18.7173 6.52105ZM16.9801 7.99223C16.3395 8.22031 15.8879 8.63068 15.5935 9.2522C15.1417 10.206 15.3062 11.3002 16.0134 12.0448C16.7509 12.8213 17.785 13.0108 18.7418 12.5449C19.0804 12.38 19.521 11.9619 19.723 11.6137C20.5336 10.2166 19.8238 8.3719 18.3148 7.95396C17.9425 7.85082 17.3276 7.86849 16.9801 7.99223ZM1.13632 9.21031C1.12801 9.23663 1.08069 9.56157 1.03109 9.93241C0.981538 10.3033 0.749402 11.9877 0.515211 13.6757C0.28102 15.3637 0.0894139 16.75 0.0894139 16.7564C0.0893692 16.7627 2.61721 16.768 5.70674 16.768H11.3242L11.1215 16.5471C10.8203 16.2187 10.588 15.9095 10.2917 15.4427C9.83486 14.7229 9.85385 14.7632 8.8914 12.4667C7.8355 9.94725 7.54081 9.25774 7.50064 9.21282C7.44313 9.14855 1.15657 9.14609 1.13632 9.21031ZM18.086 9.56604C18.62 9.83509 18.6915 10.6453 18.2146 11.0238C17.8084 11.3463 17.194 11.1923 16.9505 10.7072C16.8655 10.5376 16.8653 10.1182 16.9503 9.94813C17.1639 9.52088 17.663 9.35292 18.086 9.56604Z" fill="#0655A0"/>
</svg>
