<svg width="22" height="21" viewBox="0 0 22 21" fill="none" xmlns="http://www.w3.org/2000/svg">
<path fill-rule="evenodd" clip-rule="evenodd" d="M10.7162 1.06546C10.5496 1.18263 10.5162 1.3422 10.5162 2.02077V2.65008H6.46052C2.70335 2.65008 2.39766 2.65498 2.30816 2.71696C2.15524 2.82283 2.11639 2.89368 2.11506 3.06903C2.11408 3.19892 2.13761 3.25674 2.22871 3.34823C2.37851 3.49869 2.46953 3.51365 3.23669 3.51365C3.73595 3.51365 3.8766 3.52468 3.86206 3.56271C3.85174 3.58972 3.20355 5.20154 2.42165 7.14457L1 10.6774L1.00559 11.0306C1.0213 12.0216 1.60079 13.0931 2.4521 13.7052C3.45929 14.4293 4.85863 14.5695 5.96306 14.057C7.18149 13.4916 8.0045 12.2853 8.02798 11.0306L8.03459 10.6774L6.59836 7.10069C5.80841 5.13351 5.16213 3.51286 5.16213 3.4992C5.16213 3.48554 6.36681 3.47439 7.83918 3.47439H10.5162V10.0857V16.6971L10.2915 16.722C10.1679 16.7357 9.86104 16.7973 9.60952 16.8588C8.12573 17.2218 7.04158 18.2343 6.93344 19.358C6.90456 19.6583 6.93481 19.7841 7.06483 19.9052L7.16668 20H10.9488H14.731L14.8512 19.8792C14.9597 19.7703 14.9715 19.7346 14.9715 19.5146C14.9715 18.3569 13.845 17.2413 12.2922 16.8612C12.0355 16.7984 11.7243 16.7357 11.6007 16.722L11.376 16.6971V10.0857V3.47439H14.0772H16.7783L16.7608 3.56271C16.7511 3.61127 16.1049 5.2568 15.3246 7.21939L13.9061 10.7877L13.9313 11.0917C14.0594 12.635 15.1453 13.911 16.6402 14.2747C17.1168 14.3907 17.7907 14.3904 18.269 14.274C19.7561 13.9123 20.8467 12.6367 20.9766 11.1077L21 10.8315L19.5633 7.24129C18.7732 5.26666 18.1181 3.62014 18.1077 3.58234C18.0903 3.51891 18.1387 3.51365 18.7395 3.51365C19.4506 3.51365 19.6042 3.48052 19.7207 3.30192C19.8539 3.09776 19.7736 2.79261 19.5611 2.69538C19.4883 2.66209 18.3917 2.65008 15.4215 2.65008H11.3809L11.3687 1.94022L11.3565 1.23033L11.2288 1.1159C11.0809 0.983189 10.8635 0.961796 10.7162 1.06546ZM5.7503 7.28196C6.4003 8.91195 6.9404 10.2853 6.95056 10.3339L6.96897 10.4222H4.52187C2.65196 10.4222 2.07473 10.4111 2.07473 10.3753C2.07473 10.2729 4.5189 4.22868 4.54285 4.27198C4.55696 4.29746 5.10031 5.65197 5.7503 7.28196ZM18.6557 7.27214C19.3148 8.92914 19.8653 10.3157 19.879 10.3535C19.9027 10.4185 19.7701 10.4222 17.4378 10.4222C16.0813 10.4222 14.9715 10.4091 14.9715 10.3932C14.9715 10.3393 17.4138 4.26021 17.4357 4.25985C17.4476 4.25962 17.9966 5.61515 18.6557 7.27214ZM7.12224 11.3839C7.07491 11.7976 6.67297 12.4897 6.26934 12.8525C5.98928 13.1043 5.4314 13.3876 5.06443 13.4645C3.71985 13.7463 2.39066 12.9659 1.96104 11.6424C1.81652 11.1971 1.50368 11.2445 4.50752 11.2561L7.13572 11.2662L7.12224 11.3839ZM20.0581 11.3839C20.0107 11.7976 19.6088 12.4897 19.2052 12.8525C18.9251 13.1043 18.3672 13.3876 18.0003 13.4645C16.8121 13.7135 15.6012 13.1302 15.0665 12.0512C14.9432 11.8024 14.8168 11.4216 14.8156 11.2953C14.8152 11.2561 15.3535 11.2481 17.4434 11.2561L20.0716 11.2662L20.0581 11.3839ZM11.8059 17.6265C12.588 17.7743 13.2448 18.1016 13.6677 18.5543C13.8538 18.7534 14.0335 19.0387 14.0335 19.1349C14.0335 19.1628 13.0572 19.1757 10.9461 19.1757C8.83505 19.1757 7.85872 19.1628 7.85872 19.1349C7.85872 19.0386 8.03842 18.7536 8.22241 18.5582C8.98473 17.7486 10.4443 17.3691 11.8059 17.6265Z" fill="#333333" stroke="#333333" stroke-width="0.5"/>
</svg>
