<svg width="20" height="17" viewBox="0 0 20 17" fill="none" xmlns="http://www.w3.org/2000/svg">
<path fill-rule="evenodd" clip-rule="evenodd" d="M4.49518 0.0212686C4.4199 0.0291112 4.17352 0.0697604 3.94767 0.111574C1.83862 0.501993 0.466564 1.88574 0.0985986 3.99344C-0.0963931 5.11038 -0.00617128 6.01717 0.405008 7.07339C0.633985 7.66154 0.760538 7.9021 1.12647 8.44482C1.72936 9.33903 2.09779 9.71796 5.92261 13.3772C7.92298 15.291 9.61244 16.8889 9.67696 16.9281C9.83473 17.0239 10.1838 17.024 10.3418 16.9282C10.4806 16.8441 16.9461 10.68 17.5886 10.0194C18.9011 8.66966 19.6084 7.48256 19.9296 6.08996C20.0249 5.67687 20.0231 4.54603 19.9264 4.01285C19.822 3.43724 19.6874 3.01099 19.4724 2.57514C18.8239 1.26031 17.6874 0.432187 16.0868 0.108274C15.5179 -0.00687911 14.4088 -0.0366963 13.9397 0.0505423C13.4739 0.137199 12.9638 0.308686 12.5318 0.523852C11.8789 0.849084 10.837 1.58974 10.2538 2.14314L10.0094 2.37512L9.76496 2.14314C9.17908 1.58718 8.13393 0.844891 7.48693 0.525327C6.69147 0.132423 6.08026 -0.00854858 5.21253 0.000730478C4.89326 0.00414703 4.57046 0.0133872 4.49518 0.0212686ZM5.79207 1.4469C6.83035 1.64487 7.83401 2.26742 9.09035 3.49284C9.39148 3.78655 9.68741 4.04554 9.74795 4.06837C9.80849 4.09124 9.92616 4.10991 10.0094 4.10991C10.0926 4.10991 10.2103 4.09124 10.2708 4.06837C10.3314 4.04554 10.6273 3.78655 10.9284 3.49284C12.2198 2.23329 13.2632 1.59948 14.3256 1.42936C14.6929 1.37054 15.5785 1.43064 16.0124 1.54381C16.7123 1.72632 17.3862 2.10067 17.7504 2.50918C18.0085 2.79866 18.31 3.4056 18.4395 3.89638C18.5638 4.36759 18.6158 5.34182 18.5383 5.74827C18.3726 6.61798 17.8995 7.51121 17.1077 8.44917C16.7966 8.81773 10.0806 15.2914 10.0094 15.2914C9.9395 15.2914 3.22195 8.81754 2.90955 8.44917C2.3067 7.73818 1.87898 7.03449 1.65263 6.38115C1.49768 5.93404 1.44477 5.60932 1.44492 5.10712C1.44528 4.1077 1.68192 3.29367 2.15899 2.65101C2.63983 2.00326 3.6097 1.53395 4.67116 1.43537C5.21597 1.38478 5.4805 1.3875 5.79207 1.4469Z" fill="#333333"/>
</svg>
