<svg width="23" height="19" viewBox="0 0 23 19" fill="none" xmlns="http://www.w3.org/2000/svg">
<path fill-rule="evenodd" clip-rule="evenodd" d="M5.16946 0.0237708C5.08288 0.032536 4.79954 0.0779675 4.53982 0.124701C2.11442 0.561051 0.536549 2.10759 0.113388 4.46326C-0.110852 5.7116 -0.00709697 6.72507 0.46576 7.90555C0.729082 8.5629 0.874618 8.83175 1.29544 9.43833C1.98876 10.4377 2.41246 10.8612 6.81101 14.951C9.11143 17.09 11.0543 18.8758 11.1285 18.9196C11.3099 19.0267 11.7114 19.0268 11.8931 18.9198C12.0526 18.8258 19.4881 11.9365 20.2269 11.1981C21.7363 9.68962 22.5496 8.36286 22.919 6.80643C23.0286 6.34474 23.0266 5.08086 22.9153 4.48495C22.7953 3.84162 22.6405 3.36522 22.3933 2.8781C21.6475 1.40859 20.3405 0.483033 18.4998 0.121012C17.8456 -0.00768842 16.5701 -0.0410135 16.0307 0.0564885C15.495 0.15334 14.9084 0.345002 14.4116 0.585481C13.6608 0.948977 12.4625 1.77677 11.7919 2.39528L11.5108 2.65455L11.2297 2.39528C10.5559 1.7739 9.35402 0.94429 8.60997 0.58713C7.69519 0.148002 6.9923 -0.00955429 5.99441 0.000816417C5.62725 0.00463492 5.25603 0.0149622 5.16946 0.0237708ZM6.66088 1.61713C7.8549 1.83838 9.00911 2.53418 10.4539 3.90376C10.8002 4.23202 11.1405 4.52149 11.2101 4.547C11.2798 4.57256 11.4151 4.59343 11.5108 4.59343C11.6065 4.59343 11.7418 4.57256 11.8114 4.547C11.8811 4.52149 12.2214 4.23202 12.5677 3.90376C14.0527 2.49603 15.2527 1.78766 16.4744 1.59751C16.8968 1.53178 17.9152 1.59895 18.4143 1.72543C19.2192 1.92942 19.9941 2.34781 20.413 2.80438C20.7098 3.12791 21.0565 3.80626 21.2054 4.35478C21.3484 4.88143 21.4082 5.97026 21.3191 6.42454C21.1285 7.39656 20.5844 8.39488 19.6738 9.44319C19.3161 9.85511 11.5927 17.0904 11.5108 17.0904C11.4304 17.0904 3.70524 9.8549 3.34598 9.44319C2.65271 8.64855 2.16083 7.86207 1.90052 7.13187C1.72233 6.63217 1.66148 6.26924 1.66166 5.70796C1.66207 4.59096 1.93421 3.68116 2.48284 2.96289C3.0358 2.23894 4.15115 1.71441 5.37184 1.60424C5.99837 1.5477 6.30258 1.55074 6.66088 1.61713Z" fill="white"/>
</svg>
