<svg width="20" height="25" viewBox="0 0 20 25" fill="none" xmlns="http://www.w3.org/2000/svg">
<path fill-rule="evenodd" clip-rule="evenodd" d="M9.2288 1.02528C6.83804 1.31895 5.08559 2.19201 3.50757 3.87557C2.39163 5.06614 1.6505 6.44189 1.25485 8.05717C0.985399 9.15728 0.923244 10.4769 1.09892 11.3676C1.52679 13.5366 3.14165 16.3492 5.89186 19.7154C7.33105 21.477 9.60167 23.9166 9.86277 23.9817C10.1414 24.0512 10.2561 23.9651 11.2213 22.9616C15.5065 18.506 18.3341 14.2366 18.9001 11.3676C19.081 10.4504 19.0123 9.12163 18.7257 7.99404C18.2896 6.27828 17.501 4.88465 16.2575 3.63208C14.7869 2.15081 12.9868 1.27632 10.9338 1.04577C10.4816 0.995021 9.56498 0.983977 9.2288 1.02528ZM10.6708 2.12395C13.0124 2.35326 14.9993 3.5071 16.4064 5.45474C16.8051 6.00664 17.2815 6.92943 17.4966 7.56676C17.9484 8.90501 18.0681 10.3881 17.8085 11.4329C17.4301 12.9562 16.4191 14.8613 14.851 17.0062C13.7773 18.4748 12.2461 20.3057 10.7809 21.8729L10.0124 22.6948L9.89927 22.5921C9.66442 22.3789 7.92047 20.4569 7.3307 19.7614C4.43411 16.3451 2.72065 13.5714 2.19333 11.4451C1.99086 10.6286 2.01229 9.54173 2.252 8.46571C2.79712 6.01882 4.46474 3.90104 6.67778 2.84527C7.4563 2.47387 8.39633 2.21163 9.25614 2.12611C9.87142 2.06493 10.0646 2.06462 10.6708 2.12395ZM9.12398 6.58536C7.62661 6.9658 6.52394 8.24739 6.31794 9.84675C6.18095 10.91 6.53697 12.062 7.24762 12.8549C7.95762 13.6472 8.76324 14.0531 9.76894 14.1255C10.8603 14.204 11.8201 13.8157 12.6362 12.9655C13.3606 12.2109 13.6877 11.39 13.6926 10.315C13.6994 8.8145 12.9225 7.52762 11.6155 6.87446C11.3694 6.75144 11.007 6.61418 10.8101 6.56939C10.3425 6.46305 9.57686 6.4703 9.12398 6.58536ZM10.5911 7.64571C11.4511 7.85519 12.1948 8.53804 12.4934 9.39235C12.6237 9.76518 12.6689 10.4634 12.5886 10.863C12.4011 11.7959 11.6748 12.6284 10.7987 12.9146C10.375 13.0531 9.6962 13.0642 9.27852 12.9394C7.50618 12.4104 6.78161 10.1769 7.89158 8.6642C8.52576 7.79987 9.58422 7.40053 10.5911 7.64571Z" fill="#272727" stroke="#272727" stroke-width="0.5"/>
</svg>
