<svg width="17" height="22" viewBox="0 0 17 22" fill="none" xmlns="http://www.w3.org/2000/svg">
<path fill-rule="evenodd" clip-rule="evenodd" d="M7.85733 1.02198C5.86504 1.27735 4.40466 2.03653 3.08964 3.50049C2.15969 4.53577 1.54208 5.73208 1.21237 7.13667C0.987832 8.09329 0.936037 9.24078 1.08243 10.0153C1.43899 11.9014 2.78471 14.3472 5.07655 17.2743C6.27588 18.8061 8.16806 20.9274 8.38564 20.9841C8.61785 21.0446 8.71344 20.9697 9.51772 20.0971C13.0888 16.2226 15.4451 12.5101 15.9167 10.0153C16.0675 9.21773 16.0103 8.06229 15.7714 7.08178C15.408 5.58981 14.7508 4.37796 13.7146 3.28876C12.4891 2.00071 10.989 1.24027 9.27813 1.0398C8.90136 0.99567 8.13748 0.986067 7.85733 1.02198ZM9.05898 1.97735C11.0103 2.17675 12.6661 3.18009 13.8387 4.87369C14.1709 5.3536 14.5679 6.15602 14.7472 6.71022C15.1237 7.87392 15.2234 9.16359 15.0071 10.0721C14.6917 11.3967 13.8493 13.0533 12.5425 14.9185C11.6478 16.1955 10.3718 17.7876 9.15072 19.1504L8.51036 19.865L8.41605 19.7757C8.22035 19.5903 6.76706 17.9191 6.27559 17.3142C3.86176 14.3436 2.43387 11.9316 1.99444 10.0827C1.82571 9.37273 1.84357 8.42759 2.04334 7.49192C2.4976 5.36419 3.88729 3.52265 5.73149 2.60458C6.38025 2.28163 7.1636 2.0536 7.88012 1.97922C8.39285 1.92602 8.55387 1.92575 9.05898 1.97735ZM7.76998 5.85684C6.52217 6.18765 5.60328 7.30208 5.43161 8.69283C5.31746 9.61742 5.61414 10.6191 6.20635 11.3087C6.79801 11.9975 7.46936 12.3505 8.30745 12.4135C9.21693 12.4818 10.0168 12.1441 10.6968 11.4048C11.3005 10.7486 11.5731 10.0348 11.5771 9.09998C11.5828 7.79522 10.9354 6.67619 9.84627 6.10823C9.64116 6.00125 9.33913 5.88189 9.17512 5.84294C8.78542 5.75048 8.14738 5.75678 7.76998 5.85684ZM8.99256 6.77888C9.70928 6.96104 10.329 7.55481 10.5778 8.29769C10.6864 8.6219 10.6571 9.5765 10.6571 9.5765C10.6571 9.5765 9.89566 11.1116 9.16555 11.3606C8.81252 11.4809 8.24683 11.4906 7.89877 11.3821C6.42181 10.922 5.81801 8.97991 6.74299 7.66452C7.27146 6.91293 8.15352 6.56568 8.99256 6.77888Z" fill="#272727" stroke="#272727" stroke-width="0.5"/>
</svg>
