<svg width="21" height="21" viewBox="0 0 21 21" fill="none" xmlns="http://www.w3.org/2000/svg">
<path fill-rule="evenodd" clip-rule="evenodd" d="M9.24513 1.15535C8.31692 1.39882 7.65972 1.78399 6.93553 2.5089C6.201 3.24425 5.82457 3.89556 5.5795 4.85453C5.2732 6.05366 5.43288 7.35865 6.02334 8.48104C6.17564 8.77053 6.57615 9.29076 6.91577 9.64036C7.25472 9.98919 7.53201 10.2822 7.53201 10.2917C7.53201 10.3012 7.38895 10.3553 7.21401 10.4121C6.14206 10.76 4.77043 11.6456 3.80184 12.6152C2.36593 14.0527 1.45027 15.8392 1.12718 17.8332C0.935701 19.0154 0.958003 19.5388 1.21062 19.7916L1.41872 20H10.5H19.5813L19.7894 19.7916C20.042 19.5388 20.0643 19.0154 19.8728 17.8332C19.3802 14.7931 17.4602 12.1879 14.6976 10.8111C14.3711 10.6484 13.9609 10.4688 13.786 10.4121C13.6111 10.3553 13.468 10.3012 13.468 10.2917C13.468 10.2822 13.7453 9.98919 14.0842 9.64036C14.795 8.90882 15.1831 8.22907 15.4205 7.30016C15.7265 6.10239 15.5676 4.80002 14.9781 3.67365C14.6177 2.98499 13.5889 1.95505 12.901 1.59425C11.779 1.00576 10.4321 0.844039 9.24513 1.15535ZM11.2802 2.4375C13.196 2.84483 14.4922 4.7552 14.1616 6.68459C13.8186 8.68742 11.8914 10.0858 9.93634 9.75055C6.93146 9.23524 5.7251 5.59829 7.85374 3.47211C8.78238 2.54455 10.0224 2.17017 11.2802 2.4375ZM12.3547 11.3803C13.8745 11.7546 15.071 12.4386 16.2229 13.5916C17.5821 14.9524 18.3074 16.4058 18.5841 18.3233L18.6301 18.6417H10.5H2.36992L2.41588 18.3233C2.6841 16.4647 3.41439 14.9718 4.69122 13.672C5.5388 12.8091 5.9594 12.4981 6.92171 12.0227C8.24297 11.3697 9.23725 11.1592 10.7544 11.2112C11.3374 11.2311 12.0575 11.3073 12.3547 11.3803Z" fill="#333333" stroke="#333333" stroke-width="0.3"/>
</svg>
