<svg width="17" height="18" viewBox="0 0 17 18" fill="none" xmlns="http://www.w3.org/2000/svg">
<path fill-rule="evenodd" clip-rule="evenodd" d="M6.36393 0.0379941C5.13388 0.166834 3.90871 0.660874 2.85224 1.45411C2.46076 1.74806 1.74155 2.47336 1.44946 2.86882C0.542273 4.09698 0.057281 5.48984 0.00512205 7.017C-0.0259323 7.92693 0.0832399 8.71046 0.359493 9.55978C0.704189 10.6196 1.29636 11.5959 2.08039 12.3971C3.22982 13.5717 4.68238 14.2933 6.30506 14.4956C6.74189 14.5501 7.85847 14.5205 8.2747 14.4435C9.24262 14.2643 10.1038 13.9283 10.8828 13.4258L11.1842 13.2314L13.2964 15.4733C14.458 16.7064 15.4568 17.7568 15.5157 17.8075C15.8855 18.1254 16.5286 18.0378 16.8108 17.6311C16.9526 17.4268 16.9965 17.293 16.9997 17.056C17.0047 16.674 16.9803 16.6439 14.7485 14.2768C13.632 13.0925 12.683 12.0806 12.6397 12.028L12.5609 11.9323L12.7453 11.6912C13.9949 10.0567 14.4791 7.90663 14.0714 5.80318C13.8676 4.75216 13.3342 3.59668 12.654 2.7328C11.1306 0.798017 8.76868 -0.213881 6.36393 0.0379941ZM7.77625 1.94854C10.0094 2.25241 11.7782 3.92304 12.2521 6.17616C12.3462 6.62386 12.3814 7.5193 12.3215 7.94632C12.1501 9.17041 11.6457 10.216 10.8196 11.0602C10.0231 11.8742 9.03516 12.3904 7.91445 12.5782C7.53845 12.6412 6.71259 12.6415 6.3094 12.5788C4.85659 12.3527 3.54067 11.4909 2.73219 10.2362C2.44327 9.78783 2.28789 9.46316 2.12808 8.97391C1.95421 8.4417 1.88505 8.04307 1.86287 7.4451C1.7516 4.44684 4.11831 1.92739 7.06971 1.9022C7.25907 1.90058 7.57702 1.92141 7.77625 1.94854Z" fill="white"/>
</svg>
