<svg width="18" height="19" viewBox="0 0 18 19" fill="none" xmlns="http://www.w3.org/2000/svg">
<path fill-rule="evenodd" clip-rule="evenodd" d="M6.73828 0.0401049C5.43587 0.176103 4.13863 0.697589 3.02002 1.53489C2.60551 1.84518 1.84399 2.61077 1.53472 3.0282C0.574171 4.32459 0.0606504 5.79484 0.00542334 7.40683C-0.0274577 8.36732 0.0881364 9.19437 0.38064 10.0909C0.745612 11.2095 1.37261 12.2401 2.20277 13.0859C3.41981 14.3257 4.95782 15.0873 6.67595 15.3009C7.13847 15.3584 8.32073 15.3272 8.76145 15.2459C9.78631 15.0568 10.6982 14.7021 11.523 14.1717L11.8421 13.9664L14.0785 16.333C15.3085 17.6345 16.366 18.7433 16.4284 18.7968C16.8199 19.1324 17.5009 19.0399 17.7997 18.6106C17.9498 18.395 17.9963 18.2538 17.9997 18.0036C18.005 17.6004 17.9792 17.5686 15.616 15.0699C14.4338 13.8199 13.4291 12.7517 13.3832 12.6962L13.2998 12.5952L13.495 12.3407C14.8181 10.6154 15.3308 8.34589 14.8991 6.12558C14.6834 5.01617 14.1186 3.7965 13.3984 2.88462C11.7853 0.842351 9.28449 -0.225763 6.73828 0.0401049ZM8.23368 2.05679C10.5982 2.37755 12.471 4.14099 12.9728 6.51928C13.0725 6.99185 13.1097 7.93704 13.0463 8.38778C12.8648 9.67987 12.3308 10.7835 11.4561 11.6746C10.6127 12.5339 9.56664 13.0788 8.38 13.277C7.98189 13.3435 7.10745 13.3438 6.68054 13.2776C5.14227 13.0389 3.74895 12.1293 2.89291 10.8049C2.58699 10.3316 2.42247 9.9889 2.25326 9.47246C2.06917 8.91068 1.99593 8.48991 1.97246 7.85872C1.85464 4.69389 4.36056 2.03447 7.48558 2.00788C7.68607 2.00617 8.02272 2.02815 8.23368 2.05679Z" fill="#333333"/>
</svg>
