<svg width="21" height="21" viewBox="0 0 21 21" fill="none" xmlns="http://www.w3.org/2000/svg">
<path fill-rule="evenodd" clip-rule="evenodd" d="M8.50562 0.0950497C3.08183 0.88366 -0.750709 6.03595 0.124713 11.362C0.792492 15.425 3.66246 18.5391 7.61583 19.4904C8.3324 19.6628 8.5168 19.681 8.75417 19.6028C9.12018 19.4822 9.28429 19.2402 9.28429 18.821C9.28429 18.3335 9.05701 18.159 8.1195 17.9273C6.52816 17.5339 5.30152 16.8615 4.16358 15.7587C1.54865 13.2247 0.907731 9.2829 2.59221 6.09344C5.43171 0.716933 12.7451 0.112518 16.486 4.9453C17.2265 5.90194 17.896 7.4512 18.0412 8.54398C18.1192 9.13077 18.4104 9.43478 18.8944 9.43478C19.1653 9.43478 19.2873 9.38319 19.4864 9.18432C19.7249 8.94624 19.7347 8.91073 19.6827 8.46935C19.4843 6.78396 18.6352 4.90864 17.4196 3.47067C15.2909 0.952712 11.772 -0.379871 8.50562 0.0950497ZM9.42138 3.12369C9.30392 3.21603 9.16979 3.42819 9.1233 3.59524C9.07295 3.7764 9.03862 5.0451 9.03837 6.7373L9.03788 9.57551L7.5594 11.1002C6.12832 12.576 6.08092 12.6358 6.08092 12.9634C6.08092 13.4274 6.42442 13.7813 6.87495 13.7813C7.17434 13.7813 7.26847 13.7013 8.9233 12.0386C10.3067 10.6488 10.6685 10.2399 10.7104 10.0191C10.7987 9.55296 10.7697 3.92747 10.6773 3.59524C10.573 3.22038 10.2517 2.95597 9.90032 2.95597C9.75436 2.95597 9.53892 3.03142 9.42138 3.12369ZM14.3768 10.054C14.0832 10.1169 13.4962 10.3393 13.0725 10.5484C11.7572 11.1976 10.8028 12.3034 10.289 13.7734C10.0966 14.3239 10.0712 14.5205 10.0712 15.4625C10.0712 16.4046 10.0966 16.6012 10.289 17.1516C10.8029 18.6221 11.7576 19.728 13.0725 20.3761C14.7625 21.209 16.3752 21.208 18.0695 20.373C19.1584 19.8362 19.9492 19.0465 20.4851 17.9603C21.1273 16.6589 21.1679 15.9098 20.6118 15.6227C20.3198 15.472 20.0974 15.472 19.8054 15.6227C19.5694 15.7446 19.5061 15.8646 19.2634 16.6509C18.7796 18.2188 17.2244 19.358 15.5678 19.358C13.462 19.358 11.6683 17.5661 11.6683 15.4625C11.6683 13.6586 13.0004 12.0249 14.771 11.6574C15.3267 11.542 15.7479 11.5433 16.3932 11.6619C17.0119 11.7758 17.3579 11.671 17.543 11.3136C17.7337 10.9454 17.6911 10.6772 17.395 10.3816C17.1821 10.169 17.0178 10.0956 16.5874 10.0207C15.8851 9.89863 15.0444 9.91134 14.3768 10.054ZM19.3461 11.9902C19.1789 12.034 18.5332 12.6213 17.3369 13.8177L15.5741 15.5807L14.9033 14.9271C14.3314 14.3697 14.1915 14.2734 13.9534 14.2734C13.5992 14.2734 13.3232 14.4654 13.1777 14.8133C13.0105 15.2129 13.1287 15.436 13.9499 16.2711C14.9388 17.2767 15.4354 17.481 16.116 17.1621C16.2824 17.0841 17.3043 16.1521 18.3953 15.0832L20.3729 13.1457V12.7776C20.3729 12.1838 19.9232 11.8391 19.3461 11.9902Z" fill="#272727"/>
</svg>
