<svg width="24" height="24" viewBox="0 0 24 24" fill="none" xmlns="http://www.w3.org/2000/svg">
<path fill-rule="evenodd" clip-rule="evenodd" d="M9.72071 0.108628C3.52209 1.0099 -0.857953 6.89823 0.14253 12.9852C0.905705 17.6286 4.18567 21.1876 8.7038 22.2747C9.52274 22.4717 9.73348 22.4926 10.0048 22.4032C10.4231 22.2653 10.6106 21.9888 10.6106 21.5097C10.6106 20.9525 10.3509 20.7532 9.27942 20.4883C7.46076 20.0387 6.05888 19.2702 4.75838 18.01C1.76989 15.114 1.03741 10.609 2.96253 6.96393C6.20766 0.819352 14.5658 0.128592 18.8411 5.65177C19.6874 6.74508 20.4526 8.51566 20.6185 9.76455C20.7076 10.4352 21.0404 10.7826 21.5936 10.7826C21.9032 10.7826 22.0426 10.7237 22.2702 10.4964C22.5427 10.2243 22.5539 10.1837 22.4945 9.67926C22.2678 7.7531 21.2974 5.60987 19.9081 3.96648C17.4753 1.08881 13.4537 -0.434139 9.72071 0.108628ZM10.7673 3.56993C10.6331 3.67546 10.4798 3.91793 10.4266 4.10885C10.3691 4.31589 10.3298 5.76583 10.3296 7.69977L10.329 10.9434L8.63931 12.686C7.00379 14.3726 6.94963 14.4409 6.94963 14.8153C6.94963 15.3457 7.3422 15.7501 7.85708 15.7501C8.19924 15.7501 8.30682 15.6586 10.1981 13.7584C11.779 12.17 12.1925 11.7027 12.2404 11.4504C12.3413 10.9177 12.3083 4.48853 12.2027 4.10885C12.0835 3.68043 11.7162 3.37826 11.3147 3.37826C11.1478 3.37826 10.9016 3.46448 10.7673 3.56993ZM16.4307 11.4903C16.0951 11.5621 15.4243 11.8163 14.94 12.0553C13.4368 12.7972 12.346 14.061 11.7589 15.7411C11.539 16.3702 11.51 16.5948 11.51 17.6715C11.51 18.7481 11.539 18.9727 11.7589 19.6018C12.3462 21.2824 13.4373 22.5463 14.94 23.287C16.8715 24.2388 18.7145 24.2377 20.6508 23.2834C21.8953 22.67 22.7991 21.7674 23.4116 20.5261C24.1455 19.0387 24.1919 18.1826 23.5563 17.8545C23.2226 17.6822 22.9684 17.6822 22.6347 17.8545C22.365 17.9938 22.2927 18.131 22.0154 19.0296C21.4625 20.8215 19.6851 22.1234 17.7918 22.1234C15.3851 22.1234 13.3351 20.0755 13.3351 17.6715C13.3351 15.6099 14.8576 13.7428 16.8811 13.3228C17.5163 13.1909 17.9977 13.1923 18.7351 13.3279C19.4421 13.458 19.8376 13.3382 20.0491 12.9298C20.2671 12.509 20.2184 12.2026 19.88 11.8647C19.6366 11.6217 19.4489 11.5378 18.957 11.4523C18.1544 11.3127 17.1935 11.3272 16.4307 11.4903ZM22.1099 13.7031C21.9188 13.7532 21.1808 14.4243 19.8136 15.7917L17.7989 17.8065L17.0324 17.0595C16.3787 16.4225 16.2189 16.3124 15.9467 16.3124C15.542 16.3124 15.2266 16.5319 15.0602 16.9294C14.8691 17.3862 15.0042 17.6411 15.9427 18.5955C17.0729 19.7448 17.6405 19.9782 18.4183 19.6138C18.6085 19.5247 19.7763 18.4595 21.0232 17.238L23.2833 15.0237V14.603C23.2833 13.9244 22.7694 13.5304 22.1099 13.7031Z" fill="#272727"/>
</svg>
