<svg width="18" height="21" viewBox="0 0 18 21" fill="none" xmlns="http://www.w3.org/2000/svg">
<path fill-rule="evenodd" clip-rule="evenodd" d="M0.346181 1.02171C0.27462 1.05527 0.169179 1.1413 0.111797 1.21289C-0.0374742 1.39922 -0.0372392 1.71229 0.112345 1.89899C0.308462 2.14374 0.358245 2.15221 1.60208 2.15221C2.69265 2.15221 2.71971 2.15404 2.88872 2.23898C2.98367 2.28667 3.11233 2.39465 3.17465 2.47889L3.28797 2.63203L3.82947 8.33021C4.41457 14.4877 4.3884 14.2876 4.66149 14.6931C4.83532 14.9512 5.20804 15.2728 5.47932 15.3987C5.96356 15.6235 5.72232 15.6151 11.4197 15.6043L16.6275 15.5945L16.7381 15.5165C17.0352 15.3069 17.1185 14.9412 16.9294 14.6763C16.7325 14.4005 17.1529 14.42 11.3983 14.4191C6.48775 14.4183 6.22627 14.415 6.07696 14.3504C5.87716 14.2639 5.67987 14.0509 5.63255 13.8704C5.59522 13.728 5.49585 12.7402 5.51728 12.7246C5.5237 12.7199 7.83793 12.3092 10.66 11.812C16.788 10.7323 16.4602 10.7946 16.7842 10.6481C17.1269 10.4932 17.589 10.0582 17.76 9.7294C18.0014 9.26517 18.0092 9.17336 17.9962 6.94299C17.9846 4.9375 17.9842 4.92937 17.8938 4.71627C17.6771 4.2055 17.2929 3.82677 16.7987 3.63671L16.5745 3.5505L10.602 3.53186L4.62956 3.51322L4.58335 3.02609C4.55789 2.75814 4.51629 2.46449 4.49087 2.37355C4.31391 1.74033 3.68807 1.17105 2.99894 1.01642C2.61826 0.930993 0.530664 0.935169 0.346181 1.02171ZM16.4378 4.80897C16.509 4.85509 16.6041 4.94022 16.6492 4.99809C16.7294 5.10119 16.7314 5.14221 16.7422 7.01164C16.7522 8.72244 16.7465 8.93696 16.6877 9.08417C16.604 9.29373 16.4032 9.50552 16.2135 9.58424C16.0594 9.64819 5.44164 11.534 5.40929 11.5032C5.3901 11.4849 4.76517 5.00909 4.76517 4.82847V4.72507H10.5367H16.3083L16.4378 4.80897ZM6.60608 16.22C6.0439 16.4031 5.64806 16.7324 5.39135 17.2304C4.80833 18.3615 5.47901 19.704 6.77216 19.9942C7.93765 20.2558 9.10272 19.4865 9.27835 18.3393C9.33491 17.97 9.25599 17.5407 9.06543 17.1804C8.82725 16.7303 8.29064 16.3198 7.76672 16.187C7.44887 16.1064 6.90748 16.1218 6.60608 16.22ZM13.4988 16.22C12.0356 16.695 11.6102 18.4355 12.7023 19.4784C13.6805 20.4124 15.3723 20.1458 15.9774 18.9622C16.1382 18.6477 16.2024 18.3909 16.2024 18.0615C16.2024 17.2013 15.509 16.3672 14.6345 16.1754C14.3208 16.1066 13.7832 16.1277 13.4988 16.22ZM7.61655 17.4083C7.93319 17.5543 8.1134 17.9485 8.01556 18.2812C7.8187 18.9505 6.8839 19.0538 6.52869 18.4454C6.23461 17.9417 6.61932 17.3293 7.23019 17.3286C7.36818 17.3284 7.50406 17.3565 7.61655 17.4083ZM14.536 17.4132C14.9822 17.6537 15.0799 18.2175 14.7395 18.5866C14.4853 18.8622 14.1303 18.926 13.779 18.7594C13.1865 18.4783 13.1949 17.6901 13.7935 17.3902C13.9739 17.2998 14.3473 17.3114 14.536 17.4132Z" fill="#333333" stroke="#333333" stroke-width="0.3"/>
</svg>
