<svg width="18" height="22" viewBox="0 0 18 22" fill="none" xmlns="http://www.w3.org/2000/svg">
<path fill-rule="evenodd" clip-rule="evenodd" d="M0.346181 1.07039C0.27462 1.10554 0.169179 1.19566 0.111797 1.27066C-0.0374742 1.46586 -0.0372392 1.79384 0.112345 1.98943C0.308462 2.24584 0.358245 2.25471 1.60208 2.25471C2.69265 2.25471 2.71971 2.25663 2.88872 2.34561C2.98367 2.39557 3.11233 2.5087 3.17465 2.59695L3.28797 2.75738L3.82947 8.72691C4.41457 15.1776 4.3884 14.968 4.66149 15.3928C4.83532 15.6632 5.20804 16.0001 5.47932 16.132C5.96356 16.3675 5.72232 16.3587 11.4197 16.3474L16.6275 16.3371L16.7381 16.2554C17.0352 16.0358 17.1185 15.6527 16.9294 15.3752C16.7325 15.0862 17.1529 15.1067 11.3983 15.1057C6.48775 15.1049 6.22627 15.1014 6.07696 15.0337C5.87716 14.9432 5.67987 14.72 5.63255 14.5309C5.59522 14.3817 5.49585 13.3469 5.51728 13.3305C5.5237 13.3256 7.83793 12.8954 10.66 12.3745C16.788 11.2434 16.4602 11.3086 16.7842 11.1552C17.1269 10.9929 17.589 10.5371 17.76 10.1927C18.0014 9.70638 18.0092 9.61021 17.9962 7.27363C17.9846 5.17264 17.9842 5.16412 17.8938 4.94087C17.6771 4.40578 17.2929 4.00901 16.7987 3.80991L16.5745 3.71959L10.602 3.70006L4.62956 3.68053L4.58335 3.1702C4.55789 2.88949 4.51629 2.58187 4.49087 2.48659C4.31391 1.82322 3.68807 1.22683 2.99894 1.06484C2.61826 0.975344 0.530664 0.979719 0.346181 1.07039ZM16.4378 5.03798C16.509 5.08631 16.6041 5.17549 16.6492 5.23611C16.7294 5.34412 16.7314 5.38709 16.7422 7.34554C16.7522 9.13781 16.7465 9.36255 16.6877 9.51677C16.604 9.73631 16.4032 9.95819 16.2135 10.0406C16.0594 10.1076 5.44164 12.0833 5.40929 12.051C5.3901 12.0318 4.76517 5.24764 4.76517 5.05841V4.95009H10.5367H16.3083L16.4378 5.03798ZM6.60608 16.9924C6.0439 17.1843 5.64806 17.5292 5.39135 18.0509C4.80833 19.2359 5.47901 20.6423 6.77216 20.9464C7.93765 21.2204 9.10272 20.4144 9.27835 19.2126C9.33491 18.8257 9.25599 18.376 9.06543 17.9986C8.82725 17.527 8.29064 17.097 7.76672 16.9578C7.44887 16.8734 6.90748 16.8896 6.60608 16.9924ZM13.4988 16.9924C12.0356 17.49 11.6102 19.3134 12.7023 20.4059C13.6805 21.3844 15.3723 21.1051 15.9774 19.8652C16.1382 19.5357 16.2024 19.2666 16.2024 18.9216C16.2024 18.0205 15.509 17.1466 14.6345 16.9457C14.3208 16.8736 13.7832 16.8957 13.4988 16.9924ZM7.61655 18.2373C7.93319 18.3902 8.1134 18.8032 8.01556 19.1517C7.8187 19.853 6.8839 19.9611 6.52869 19.3237C6.23461 18.7961 6.61932 18.1545 7.23019 18.1538C7.36818 18.1536 7.50406 18.183 7.61655 18.2373ZM14.536 18.2424C14.9822 18.4944 15.0799 19.085 14.7395 19.4717C14.4853 19.7604 14.1303 19.8273 13.779 19.6527C13.1865 19.3583 13.1949 18.5325 13.7935 18.2184C13.9739 18.1237 14.3473 18.1358 14.536 18.2424Z" fill="white" stroke="white" stroke-width="0.3"/>
</svg>
