<svg width="22" height="19" viewBox="0 0 22 19" fill="none" xmlns="http://www.w3.org/2000/svg">
<path fill-rule="evenodd" clip-rule="evenodd" d="M5.15298 1.11923C4.48817 1.25923 3.47453 1.74752 2.96083 2.17518C0.520447 4.20678 0.336256 7.47053 2.5302 9.80497C5.04011 12.4756 10.4898 18 10.6145 18C10.7907 18 19.5015 9.85399 19.9495 9.27025C21.9403 6.67629 20.9983 2.94247 17.9958 1.52633C16.1138 0.638685 13.8762 0.890227 12.2682 2.17024C11.8232 2.52445 11.1898 3.22862 11.1171 3.45003C11.0611 3.62038 10.9505 3.62038 10.8945 3.45003C10.8217 3.22862 10.1884 2.52445 9.74335 2.17024C8.49406 1.17576 6.76478 0.779822 5.15298 1.11923ZM7.46697 1.72407C8.66925 1.99914 9.93286 2.95097 10.5389 4.0381C10.7622 4.43867 10.8499 4.53132 11.0058 4.53132C11.1617 4.53132 11.2493 4.43867 11.4726 4.0381C11.8677 3.32939 12.7792 2.45889 13.4887 2.11258C15.3761 1.19139 17.5143 1.52375 18.9861 2.96706C19.6631 3.63101 20.0122 4.21786 20.2368 5.06977C20.6135 6.49866 20.2568 7.9853 19.2643 9.1235C18.8515 9.59684 10.7155 17.2412 10.6244 17.2412C10.5509 17.2412 2.81207 9.25242 2.54756 8.90345C1.71553 7.80577 1.42865 6.38272 1.77474 5.06977C1.99937 4.21786 2.34843 3.63101 3.02544 2.96706C3.67116 2.33377 4.40745 1.91445 5.20147 1.72764C5.79682 1.58764 6.86309 1.58597 7.46697 1.72407Z" fill="black" stroke="black" stroke-width="0.3"/>
</svg>
