<svg width="20" height="17" viewBox="0 0 20 17" fill="none" xmlns="http://www.w3.org/2000/svg">
<path fill-rule="evenodd" clip-rule="evenodd" d="M4.52741 0.0601948C2.64624 0.329881 1.33363 1.20175 0.584593 2.67903C0.0239416 3.78473 -0.157677 5.40381 0.145855 6.59035C0.440236 7.74122 1.14591 9.00793 2.23421 10.339C3.57744 11.9819 5.65172 13.8866 7.98488 15.6196C8.38033 15.9133 9.79058 16.9011 9.95035 16.9964C10.0064 17.0298 10.2922 16.8404 11.3279 16.0836C14.1863 13.9949 16.6402 11.7132 18.1407 9.74879C19.5546 7.89776 20.1387 6.34839 19.9725 4.88982C19.6526 2.08267 17.3148 0.00304576 14.4754 3.46468e-06C13.0169 -0.00157545 11.6861 0.536526 10.6241 1.55731C10.4628 1.71235 10.2605 1.92701 10.1745 2.03437C10.0884 2.14174 10.0093 2.22958 9.99852 2.22958C9.98776 2.22958 9.90859 2.14174 9.82257 2.03437C9.14513 1.18889 8.03825 0.469903 6.96668 0.179229C6.31536 0.00254527 5.28149 -0.0479029 4.52741 0.0601948Z" fill="#FF2222"/>
</svg>
