<svg width="16" height="18" viewBox="0 0 16 18" fill="none" xmlns="http://www.w3.org/2000/svg">
<path fill-rule="evenodd" clip-rule="evenodd" d="M0.307716 0.0633465C0.244107 0.0949879 0.150381 0.176095 0.0993749 0.243597C-0.0333104 0.419277 -0.0331015 0.714457 0.0998623 0.890488C0.274188 1.12126 0.31844 1.12924 1.42407 1.12924C2.39346 1.12924 2.41752 1.13096 2.56775 1.21105C2.65215 1.25602 2.76652 1.35783 2.82191 1.43725L2.92264 1.58164L3.40397 6.95422C3.92406 12.7599 3.9008 12.5712 4.14354 12.9535C4.29806 13.1969 4.62937 13.5001 4.87051 13.6188C5.30095 13.8307 5.08651 13.8229 10.1508 13.8127L14.78 13.8034L14.8783 13.7298C15.1424 13.5322 15.2164 13.1874 15.0483 12.9376C14.8733 12.6776 15.247 12.696 10.1318 12.6952C5.76689 12.6944 5.53446 12.6913 5.40174 12.6304C5.22414 12.5489 5.04877 12.348 5.00671 12.1778C4.97353 12.0436 4.8852 11.1122 4.90425 11.0975C4.90996 11.0931 6.96705 10.7058 9.47557 10.237C14.9226 9.21904 14.6313 9.27775 14.9193 9.13969C15.2239 8.99357 15.6346 8.58343 15.7866 8.27345C16.0013 7.83574 16.0082 7.74919 15.9966 5.64626C15.9863 3.75537 15.9859 3.74771 15.9056 3.54679C15.713 3.0652 15.3715 2.70811 14.9322 2.52892L14.7328 2.44763L9.42401 2.43005L4.11517 2.41248L4.07409 1.95318C4.05145 1.70054 4.01448 1.42368 3.99188 1.33793C3.83458 0.740895 3.27829 0.204151 2.66573 0.0583542C2.32735 -0.0221908 0.471702 -0.0182532 0.307716 0.0633465ZM14.6113 3.63419C14.6746 3.67768 14.7592 3.75794 14.7993 3.8125C14.8706 3.90971 14.8723 3.94839 14.882 5.71099C14.8908 7.32403 14.8858 7.52629 14.8335 7.66509C14.7591 7.86268 14.5806 8.06237 14.412 8.13658C14.275 8.19688 4.83702 9.97495 4.80826 9.94588C4.7912 9.92865 4.2357 3.82287 4.2357 3.65257V3.55508H9.36597H14.4962L14.6113 3.63419ZM5.87207 14.3932C5.37235 14.5658 5.0205 14.8763 4.79231 15.3458C4.27407 16.4123 4.87023 17.6781 6.0197 17.9517C7.05569 18.1984 8.09131 17.473 8.24742 16.3913C8.2977 16.0431 8.22754 15.6384 8.05816 15.2987C7.84644 14.8743 7.36946 14.4873 6.90375 14.362C6.62122 14.2861 6.13999 14.3006 5.87207 14.3932ZM11.999 14.3932C10.6983 14.841 10.3201 16.482 11.291 17.4654C12.1604 18.346 13.6643 18.0946 14.2021 16.9787C14.3451 16.6821 14.4021 16.44 14.4021 16.1294C14.4021 15.3184 13.7858 14.532 13.0085 14.3511C12.7296 14.2862 12.2518 14.3061 11.999 14.3932ZM6.77027 15.5136C7.05172 15.6512 7.21191 16.0229 7.12494 16.3365C6.94995 16.9677 6.11903 17.065 5.80328 16.4914C5.54187 16.0165 5.88384 15.439 6.42684 15.4384C6.5495 15.4383 6.67027 15.4647 6.77027 15.5136ZM12.9209 15.5182C13.3175 15.745 13.4044 16.2765 13.1018 16.6245C12.8758 16.8844 12.5603 16.9446 12.248 16.7874C11.7214 16.5224 11.7288 15.7793 12.2609 15.4965C12.4212 15.4113 12.7531 15.4222 12.9209 15.5182Z" fill="white"/>
</svg>
