<svg width="273" height="60" viewBox="0 0 273 60" fill="none" xmlns="http://www.w3.org/2000/svg">
<path fill-rule="evenodd" clip-rule="evenodd" d="M141.279 0.146789C140.849 0.246522 139.704 0.579573 138.735 0.886414C137.766 1.19326 135.508 1.75198 133.717 2.1287C125.966 3.75755 119.369 8.6186 116.048 15.1464C115.368 16.4822 114.682 17.8042 114.524 18.0837C114.365 18.3636 113.317 18.811 112.195 19.0778C108.745 19.8989 104.902 22.6234 104.224 24.7291C103.849 25.8931 103.903 26.2356 104.644 27.3501C105.284 28.3129 109.141 31.7427 110.491 32.5486C110.565 32.593 110.345 33.7789 110.001 35.1839C107.215 46.573 113.759 56.9445 125.328 59.4768C129.264 60.338 136.485 60.0067 139.979 58.8045C148.378 55.9148 153.218 49.3823 153.218 40.9374C153.218 38.2792 153.308 37.9575 154.418 36.6544C155.078 35.8791 156.165 33.8084 156.832 32.0521C157.851 29.3717 158.075 28.1691 158.226 24.5664C158.436 19.5168 157.805 16.4472 155.739 12.4794C155.01 11.0781 154.061 8.86684 153.63 7.56559C152.528 4.23328 151.349 2.809 148.544 1.41893C146.197 0.255623 143.125 -0.282352 141.279 0.146789ZM144.802 1.01381C144.935 1.214 144.725 1.37925 144.336 1.38144C143.15 1.38726 139.615 3.08563 137.215 4.80292C134.299 6.88893 131.317 9.93041 129.494 12.6767C128.703 13.8695 127.947 14.8446 127.817 14.8435C127.686 14.8424 127.052 14.45 126.409 13.9714L125.239 13.1015L126.762 11.046C128.941 8.10319 133.531 4.26349 136.747 2.69216C140.206 1.00143 144.236 0.162078 144.802 1.01381ZM132.667 4.00943C130.057 5.9291 127.42 8.57929 125.794 10.9194C124.945 12.1398 124.251 13.2802 124.251 13.4538C124.251 13.6274 125.309 14.4045 126.601 15.1813L128.95 16.5932L132.766 13.0804C138.388 7.90446 143.631 5.3631 147.557 5.91054C148.977 6.10854 149.6 6.49219 151.336 8.23569C155.253 12.1711 157.539 17.7063 157.509 23.1843L157.494 25.947L155.994 26.9112C154.738 27.7178 154.449 28.1487 154.223 29.549C154.039 30.6912 153.7 31.3489 153.156 31.6197C152.409 31.9917 152.375 31.9396 152.622 30.8018C152.767 30.1335 152.958 29.3411 153.047 29.0409C153.185 28.576 152.438 28.4923 148.027 28.4774C144.496 28.4654 142.121 28.2717 140.572 27.8695C138.339 27.2897 138.261 27.2948 136.155 28.1607L134.012 29.0423L130.404 27.7505C123.884 25.4163 117.615 21.2439 118.173 19.6103C118.348 19.0974 118.101 18.4608 117.392 17.5964L116.355 16.3326L117.405 14.5389C120.3 9.593 125.479 5.52798 131.42 3.53952C134.242 2.59497 134.473 2.68197 132.667 4.00943ZM170.637 11.081C169.13 11.5913 167.758 12.13 167.587 12.2781C167.416 12.4263 168.084 13.3828 169.071 14.4038C171.588 17.0074 174.117 17.8934 179.079 17.9108C182.528 17.9229 183.026 17.8304 185.415 16.737C187.191 15.9242 188.385 15.0728 189.206 14.0344C189.866 13.2001 190.405 12.4186 190.405 12.2974C190.405 12.1198 186.252 10.6911 184.273 10.1881C184.023 10.1244 183.699 10.4203 183.554 10.8458C183.124 12.1049 181.079 13.0225 178.699 13.0239C176.739 13.0254 176.474 12.918 175.094 11.5694C174.275 10.7687 173.554 10.1226 173.491 10.1335C173.429 10.1444 172.145 10.5707 170.637 11.081ZM116.736 18.194C116.994 18.4343 117.205 19.1371 117.205 19.7563C117.205 22.2237 123.553 26.4092 131.032 28.8731L134.093 29.8813L136.204 29.0678C138.266 28.2728 138.384 28.2674 141.307 28.8294C142.953 29.146 146.053 29.4048 148.198 29.4048C151.722 29.4048 152.079 29.466 151.909 30.0418C151.806 30.3923 151.609 31.2947 151.472 32.0474L151.224 33.416L152.991 32.6178C154.579 31.9003 154.783 31.6634 155.008 30.2704C155.145 29.4179 155.591 28.4399 155.999 28.0963C156.884 27.352 156.888 27.4255 156.156 30.6417C155.528 33.3974 154.842 34.3474 152.937 35.0969C151.033 35.8463 149.326 35.7102 143.486 34.3423C136.401 32.6829 132 31.2342 126.796 28.849C121.728 26.5261 118.384 24.1867 116.79 21.8488C115.245 19.5834 115.203 16.769 116.736 18.194ZM115.071 20.7601C115.256 21.5544 116.273 22.7915 118.164 24.5252C120.572 26.7332 121.742 27.4553 126.237 29.5075C132.038 32.1559 137.299 33.8721 144.394 35.4307C148.614 36.3574 148.96 36.4928 147.917 36.8051C146.197 37.3198 131.281 37.2786 127.003 36.7468C123.955 36.3679 122.749 36.0152 120.216 34.7602C114.9 32.1264 105.854 25.3347 105.854 23.9774C105.854 22.8614 111.715 19.6008 113.749 19.5852C114.614 19.5786 114.842 19.7817 115.071 20.7601ZM152.839 20.6488C152.251 21.6694 152.468 23.0351 153.218 23.0351C153.599 23.0351 153.85 22.6037 153.932 21.8059C154.092 20.2436 153.458 19.5724 152.839 20.6488ZM15.3208 21.2151C8.13198 22.912 2.83653 27.661 0.709815 34.3187C-0.148621 37.006 -0.247657 42.9273 0.518007 45.7843C2.3711 52.6997 7.85562 57.837 15.075 59.4193C20.0499 60.5098 26.4758 59.9762 30.3167 58.154L31.8707 57.417V52.1319V46.8468L30.7942 47.7837C28.9979 49.3466 25.8374 50.5827 23.1188 50.7858C18.5495 51.1269 14.8088 49.2691 12.7902 45.6565C11.3473 43.0737 11.2905 38.5533 12.6645 35.6698C15.6829 29.3371 24.4012 27.9463 30.2548 32.8642L31.8707 34.2215V28.9095C31.8707 23.7663 31.8421 23.5803 30.9692 23.0485C27.7116 21.0637 19.8592 20.1439 15.3208 21.2151ZM219.959 21.0411C215.23 21.9238 210.447 24.6275 207.895 27.8601C204.993 31.5353 203.711 35.399 203.72 40.4333C203.739 50.0426 209.388 57.1425 218.837 59.4309C223.446 60.5473 230.434 59.9689 234.259 58.154L235.813 57.417V52.1144V46.8115L234.583 47.7738C233.906 48.3034 232.453 49.1701 231.353 49.6997C229.664 50.5139 228.839 50.6657 226.027 50.6803C222.35 50.6988 220.986 50.2399 218.653 48.2004C216.556 46.367 215.736 44.5271 215.548 41.2344C215.346 37.6972 216.297 34.9436 218.425 32.9068C220.621 30.8044 222.653 30.0018 225.831 29.9829C228.988 29.9639 231.372 30.8018 234.118 32.894L235.813 34.1855V28.8894V23.5934L233.863 22.6747C230.108 20.9054 224.327 20.2262 219.959 21.0411ZM37.3783 26.1177L37.419 30.4742L41.9844 30.5765L46.5498 30.6788L46.6524 44.7833L46.7545 58.8878H52.4262H58.0974V44.6923V30.4968H62.599H67.1006V26.129V21.7611H52.2187H37.3372L37.3783 26.1177ZM72.1894 40.299V58.8878L77.9632 58.8882L83.737 58.8886V52.7914V46.6942L89.2262 46.5123C94.4434 46.3394 94.8442 46.2713 97.3154 45.1397C98.7449 44.4852 100.485 43.3459 101.181 42.6085C103.908 39.7202 105.111 35.4896 104.282 31.7038C103.331 27.3683 100.684 24.3345 96.4898 22.7744C94.4453 22.0137 93.6014 21.954 83.2477 21.8361L72.1894 21.7105V40.299ZM159.481 40.3245V58.8878H165.109H170.737L178.46 47.9682C182.708 41.9624 186.296 37.0486 186.435 37.0482C186.574 37.0482 186.638 41.962 186.577 47.9678L186.469 58.8878H191.96H197.451V40.3245V21.7611L191.873 21.7735L186.295 21.7859L178.466 32.8813L170.637 43.9764L170.534 32.8685L170.43 21.7611H164.956H159.481V40.3245ZM250.625 22.4356C246.688 23.391 243.446 25.9455 242.284 29.0092C239.702 35.8125 242.561 42.4116 249.006 44.526C249.823 44.7942 250.447 45.1884 250.393 45.4021C250.339 45.6158 248.287 48.3074 245.834 51.3842C243.381 54.4606 241.072 57.4075 240.702 57.9327L240.029 58.8878H246.057H252.085L256.243 52.6091C258.53 49.1555 260.638 46.3303 260.927 46.3303C261.342 46.3303 261.475 47.6479 261.56 52.6091L261.667 58.8878H267.333H273V40.3245V21.7611L263.116 21.7822C255.044 21.7993 252.754 21.9191 250.625 22.4356ZM155.445 23.0882C155.04 23.4638 155.121 25.6907 155.547 25.9357C156.054 26.2272 156.819 24.8142 156.668 23.8639C156.54 23.0587 155.907 22.6576 155.445 23.0882ZM150.324 24.5209C149.981 25.3515 150.042 26.2301 150.484 26.8569C150.827 27.3421 150.912 27.3421 151.255 26.8569C151.852 26.0107 151.748 23.945 151.107 23.945C150.807 23.945 150.455 24.2042 150.324 24.5209ZM89.9147 30.2646C92.5351 31.2958 93.5176 33.5936 92.4012 36.0782C91.5866 37.8908 89.8337 38.5722 86.3506 38.4296L83.737 38.3225L83.6246 34.5254C83.5628 32.4369 83.6015 30.5121 83.7104 30.2486C83.9777 29.6007 88.2562 29.6116 89.9147 30.2646ZM261.648 34.3562V38.9431L258.328 38.815C255.182 38.6931 254.942 38.6243 253.729 37.4967C252.631 36.476 252.449 36.0523 252.449 34.5203C252.449 31.2532 254.482 29.8289 259.202 29.7892L261.648 29.7688V34.3562ZM125.23 39.6591C126.737 39.8553 131.05 40.1261 134.814 40.2611L141.657 40.5065L141.53 42.1444C141.271 45.4636 139.261 48.4712 136.272 50.0116C134.526 50.911 133.812 51.0606 131.297 51.0537C129.042 51.0472 127.986 50.8601 126.74 50.2471C123.26 48.5349 121.12 44.9238 121.12 40.7656C121.12 39.0298 121.203 38.8216 121.805 39.0469C122.181 39.1877 123.723 39.4633 125.23 39.6591Z" fill="#0655A0"/>
</svg>
